<svg width="23" height="28" viewBox="0 0 23 28" fill="none" xmlns="http://www.w3.org/2000/svg">
<path d="M17.272 0.986413C17.2543 2.38609 16.7384 3.73158 15.8202 4.77248C15.391 5.35273 14.849 5.83651 14.2281 6.19358C13.6071 6.55066 12.9206 6.77337 12.2114 6.84778C12.1433 6.84921 12.0757 6.83677 12.0123 6.8112C11.949 6.78563 11.8914 6.74744 11.8427 6.69886C11.7941 6.65029 11.7554 6.5923 11.729 6.52831C11.7026 6.46431 11.689 6.39559 11.689 6.32618H11.6818C11.7283 4.90381 12.2748 3.54589 13.2218 2.5001C13.7473 1.89925 14.3851 1.41133 15.0979 1.06495C15.6104 0.801954 16.1566 0.61365 16.7205 0.50556C16.7884 0.494995 16.8579 0.499523 16.924 0.518832C16.9901 0.538141 17.0513 0.571776 17.1035 0.617436C17.1556 0.663097 17.1975 0.719705 17.2262 0.783388C17.2549 0.84707 17.2698 0.916324 17.2699 0.986413H17.272ZM22.394 21.5305C22.0069 22.4495 21.5287 23.3259 20.9669 24.1459C20.4381 24.9678 19.8215 25.7275 19.1284 26.4109C18.4984 27.0526 17.6558 27.431 16.766 27.4718C16.012 27.4381 15.2712 27.2578 14.5835 26.9406C13.8412 26.6108 13.0433 26.4309 12.2338 26.4109C11.4025 26.4277 10.5822 26.6075 9.81765 26.9406C9.15714 27.2443 8.45151 27.4333 7.72989 27.5C7.27583 27.4944 6.82762 27.3949 6.41233 27.2077C5.99704 27.0205 5.6233 26.7495 5.31371 26.4109C4.59031 25.7035 3.94548 24.9171 3.39087 24.0659C2.52421 22.7994 1.83949 21.4132 1.35748 19.9494C0.807601 18.3733 0.518911 16.715 0.50324 15.0423C0.459529 13.4014 0.858846 11.7798 1.65761 10.3545C2.23983 9.32565 3.07252 8.46719 4.07524 7.86209C5.06382 7.25913 6.19179 6.93466 7.34376 6.92187C8.21374 6.97444 9.06863 7.17738 9.87188 7.52201C10.5122 7.80939 11.1861 8.01135 11.8771 8.12289C12.6391 7.96101 13.3838 7.72378 14.1006 7.41458C15.0591 7.01765 16.0889 6.83133 17.1229 6.86778C18.507 6.93578 19.8397 7.42366 20.9499 8.26885C21.1045 8.40018 21.2295 8.56381 21.3167 8.74866C21.4038 8.93351 21.451 9.13529 21.455 9.34033C21.4591 9.54537 21.4199 9.74891 21.3401 9.93718C21.2602 10.1254 21.1417 10.294 20.9925 10.4316C20.399 10.971 19.9294 11.637 19.6169 12.3822C19.3044 13.1275 19.1567 13.9337 19.1843 14.7437C19.1743 15.5529 19.3332 16.3551 19.6504 17.0969C19.9676 17.8388 20.4359 18.5035 21.0243 19.0469C21.282 19.2973 21.5605 19.5247 21.8565 19.7263C22.1359 19.916 22.3418 20.199 22.4386 20.5267C22.5355 20.8543 22.5173 21.2061 22.3871 21.5216C22.3956 21.5268 22.3948 21.529 22.394 21.5305Z" fill="#474747"/>
</svg>
