<svg width="20" height="20" viewBox="0 0 20 20" fill="none" xmlns="http://www.w3.org/2000/svg">
<g clip-path="url(#clip0_10_19)">
<path d="M19.54 8.32789C19.6276 8.32789 19.6985 8.39887 19.6985 8.48643V10.151C19.6985 10.7741 19.6407 11.3832 19.5297 11.9742C18.6711 16.5643 14.6272 20.0332 9.78006 19.9998C4.34121 19.9623 -0.0115288 15.5678 0.000513207 10.1288C0.0124782 4.69967 4.41753 0.302002 9.84951 0.302002C12.5108 0.302002 14.9254 1.35777 16.6982 3.07273C16.7622 3.13464 16.7639 3.23667 16.7009 3.29961L14.3459 5.65457C14.2853 5.7152 14.1874 5.71678 14.1252 5.65764C13.0125 4.59853 11.5071 3.9483 9.84951 3.9483C6.42655 3.9483 3.67016 6.6851 3.64692 10.108C3.62357 13.5533 6.40962 16.3537 9.84951 16.3537C12.6405 16.3537 15.0011 14.51 15.7795 11.9742H10.0081C9.92049 11.9742 9.84951 11.9032 9.84951 11.8156V8.48639C9.84951 8.39883 9.92049 8.32785 10.0081 8.32785H19.54V8.32789Z" fill="#2196F3"/>
<path d="M19.539 8.32788H18.35C18.4376 8.32788 18.5086 8.39886 18.5086 8.48643V10.151C18.5086 10.7741 18.4507 11.3832 18.3397 11.9742C17.5206 16.3532 13.8024 19.7117 9.25342 19.9823C9.42747 19.9926 9.60267 19.9986 9.77911 19.9998C14.6263 20.0332 18.6701 16.5643 19.5287 11.9742C19.6397 11.3832 19.6976 10.7741 19.6976 10.151V8.48639C19.6976 8.39886 19.6266 8.32788 19.539 8.32788Z" fill="#1E88E5"/>
<path d="M4.2153 7.55343L1.22412 5.39218C2.90223 2.35703 6.13594 0.302002 9.84926 0.302002C12.5105 0.302002 14.9252 1.35777 16.698 3.07274C16.762 3.13464 16.7636 3.23667 16.7006 3.29961L14.3457 5.65457C14.2852 5.71509 14.1872 5.71697 14.1252 5.65795C13.0126 4.59864 11.507 3.94834 9.84926 3.94834C7.35114 3.94834 5.19782 5.42508 4.2153 7.55343Z" fill="#F44336"/>
<path d="M3.35156 6.92943L4.21508 7.55334C5.11188 5.61069 6.98428 4.21159 9.20377 3.9821C9.22047 3.98029 9.23651 3.9781 9.25352 3.97648C9.05819 3.95794 8.86025 3.94824 8.66004 3.94824C6.40334 3.94824 4.43661 5.13794 3.35156 6.92943Z" fill="#E53935"/>
<path d="M15.5087 3.07274C15.5727 3.13464 15.5744 3.23667 15.5114 3.29965L13.5999 5.21109C13.7831 5.35036 13.9583 5.49933 14.1247 5.65768C14.1868 5.71682 14.2848 5.71524 14.3454 5.65461L16.7004 3.29965C16.7634 3.23667 16.7617 3.13468 16.6977 3.07274C14.9249 1.35777 12.5103 0.302002 9.84899 0.302002C9.64928 0.302002 9.45114 0.308658 9.25439 0.320392C11.6797 0.464857 13.8689 1.48643 15.5087 3.07274Z" fill="#E53935"/>
<path d="M17.0735 16.8445C15.2749 18.7854 12.7035 20.0002 9.84863 20.0002C5.99266 20.0002 2.6543 17.7843 1.0376 14.5561L4.09137 12.4634C5.00776 14.7435 7.24033 16.3539 9.84863 16.3539C11.4855 16.3539 12.9742 15.7197 14.0823 14.6837L17.0735 16.8445Z" fill="#4CAF50"/>
<path d="M4.09141 12.4634L3.19092 13.0804C4.2368 15.0289 6.29352 16.3538 8.65963 16.3538C8.85973 16.3538 9.05752 16.344 9.25277 16.3255C6.90404 16.1016 4.93712 14.5678 4.09141 12.4634Z" fill="#5C7457"/>
<path d="M9.84888 20.0001C12.7037 20.0001 15.2752 18.7853 17.0738 16.8445L16.3411 16.3152C14.6523 18.417 12.1189 19.8112 9.25586 19.9822C9.45207 19.9939 9.64974 20.0001 9.84888 20.0001Z" fill="#5C7457"/>
<path d="M3.64634 10.1509C3.64634 10.9682 3.80446 11.7486 4.09181 12.4632L1.038 14.5558C0.373763 13.2305 0 11.7343 0 10.1509C0 8.4249 0.443899 6.80266 1.2239 5.39209L4.21508 7.55334C3.85005 8.34322 3.64634 9.22352 3.64634 10.1509Z" fill="#FFC107"/>
<path d="M3.19153 13.0803L4.09203 12.4632C3.80468 11.7486 3.64655 10.9682 3.64655 10.151C3.64655 9.22354 3.85027 8.34324 4.2153 7.55336L3.35177 6.92944C2.79103 7.85529 2.46559 8.94173 2.45767 10.108C2.45036 11.1834 2.71686 12.1961 3.19153 13.0803Z" fill="#FFB300"/>
</g>
<defs>
<clipPath id="clip0_10_19">
<rect width="20" height="20" fill="white" transform="translate(0 0.302002)"/>
</clipPath>
</defs>
</svg>
