<svg width="121" height="120" viewBox="0 0 121 120" fill="none" xmlns="http://www.w3.org/2000/svg">
<circle cx="60.5" cy="60" r="59.3598" fill="white" stroke="#C7C7C7" stroke-width="1.28037"/>
<g clip-path="url(#clip0_30_25)">
<path d="M74.7638 67.7804H70.8736V63.8902C70.8736 63.1744 70.2927 62.5935 69.5769 62.5935C68.8611 62.5935 68.2802 63.1744 68.2802 63.8902V67.7804H64.39C63.6742 67.7804 63.0933 68.3614 63.0933 69.0772C63.0933 69.7929 63.6742 70.3739 64.39 70.3739H68.2802V74.2641C68.2802 74.9799 68.8611 75.5608 69.5769 75.5608C70.2927 75.5608 70.8736 74.9799 70.8736 74.2641V70.3739H74.7638C75.4796 70.3739 76.0606 69.7929 76.0606 69.0772C76.0606 68.3614 75.4796 67.7804 74.7638 67.7804Z" fill="black"/>
<path d="M58.5552 53.5164C56.0525 53.5164 54.0166 55.5522 54.0166 58.0549C54.0166 58.4128 54.3071 58.7033 54.665 58.7033C55.0229 58.7033 55.3133 58.4128 55.3133 58.0549C55.3133 56.268 56.7683 54.8131 58.5552 54.8131C58.913 54.8131 59.2035 54.5226 59.2035 54.1647C59.2035 53.8068 58.913 53.5164 58.5552 53.5164Z" fill="black"/>
<path d="M78.6543 61.7585V49.5083C78.6543 48.1636 77.6455 47.0536 76.3059 46.9265L68.9457 46.2262L67.5089 41.912C66.9786 40.3209 65.4951 39.2524 63.8184 39.2524H54.5896C52.9129 39.2524 51.4295 40.3209 50.8991 41.912L49.4611 46.2262L42.1008 46.9265C40.7613 47.0536 39.7524 48.1636 39.7524 49.5083V70.3739C39.7524 71.8042 40.9156 72.9674 42.3459 72.9674H58.5874C60.1954 77.493 64.507 80.7478 69.5772 80.7478C76.0116 80.7478 81.2478 75.5116 81.2478 69.0772C81.2478 66.3074 80.2726 63.7619 78.6543 61.7585ZM57.9832 70.3739H42.3459V49.5083L51.3867 48.6472L53.359 42.7329C53.5354 42.2025 54.0294 41.8459 54.5883 41.8459H63.8171C64.376 41.8459 64.8714 42.2025 65.0477 42.7329L67.0201 48.6472L76.0608 49.5083V59.3803C74.2052 58.1354 71.9749 57.4066 69.5772 57.4066C69.1078 57.4066 68.6462 57.443 68.191 57.4974C67.5971 53.0613 63.799 49.6263 59.2034 49.6263C54.198 49.6263 50.1263 53.698 50.1263 58.7034C50.1263 63.299 53.5613 67.0971 57.9974 67.691C57.943 68.1462 57.9066 68.6078 57.9066 69.0772C57.9066 69.5155 57.9352 69.9473 57.9832 70.3739ZM52.7197 58.7034C52.7197 55.1283 55.6283 52.2197 59.2034 52.2197C62.5749 52.2197 65.3213 54.8171 65.6274 58.1095C62.3687 59.2869 59.7869 61.8687 58.6095 65.1274C55.3171 64.8213 52.7197 62.0749 52.7197 58.7034ZM69.5772 78.1543C64.5718 78.1543 60.5001 74.0826 60.5001 69.0772C60.5001 64.0718 64.5718 60.0001 69.5772 60.0001C74.5826 60.0001 78.6543 64.0718 78.6543 69.0772C78.6543 74.0826 74.5826 78.1543 69.5772 78.1543Z" fill="black"/>
</g>
<defs>
<clipPath id="clip0_30_25">
<rect width="41.4953" height="41.4953" fill="white" transform="translate(39.7524 39.2524)"/>
</clipPath>
</defs>
</svg>
