<svg width="523" height="559" viewBox="0 0 523 559" fill="none" xmlns="http://www.w3.org/2000/svg">
<g filter="url(#filter0_d_133_2350)">
<rect x="128" y="75" width="326.236" height="362" rx="17.4458" fill="white"/>
<rect x="360.853" y="98.891" width="73.7569" height="23.6487" rx="8.28675" stroke="#8B8B8B" stroke-width="0.872289"/>
<path d="M375.466 116.173V107.218H376.592L379.688 111.798L382.784 107.218H383.897V116.173H382.822V108.958L379.688 113.627L376.554 108.983V116.173H375.466ZM388.819 116.327C388.196 116.327 387.642 116.186 387.156 115.905C386.678 115.615 386.303 115.218 386.03 114.715C385.757 114.212 385.62 113.632 385.62 112.975C385.62 112.318 385.753 111.738 386.017 111.235C386.29 110.732 386.665 110.339 387.143 110.058C387.629 109.768 388.179 109.623 388.793 109.623C389.424 109.623 389.979 109.768 390.456 110.058C390.943 110.339 391.318 110.732 391.582 111.235C391.855 111.738 391.992 112.318 391.992 112.975C391.992 113.632 391.855 114.212 391.582 114.715C391.318 115.218 390.947 115.615 390.469 115.905C389.992 116.186 389.441 116.327 388.819 116.327ZM388.819 115.38C389.245 115.38 389.616 115.278 389.932 115.073C390.247 114.868 390.495 114.587 390.674 114.229C390.862 113.87 390.955 113.453 390.955 112.975C390.955 112.497 390.862 112.079 390.674 111.721C390.495 111.363 390.243 111.081 389.919 110.877C389.595 110.672 389.22 110.57 388.793 110.57C388.375 110.57 388.004 110.672 387.68 110.877C387.365 111.081 387.113 111.363 386.925 111.721C386.746 112.079 386.657 112.497 386.657 112.975C386.657 113.444 386.746 113.862 386.925 114.229C387.113 114.587 387.369 114.868 387.693 115.073C388.026 115.278 388.401 115.38 388.819 115.38ZM393.413 116.173V109.777H394.372L394.436 110.954V116.173H393.413ZM397.903 116.173V112.898H398.927V116.173H397.903ZM397.903 112.898C397.903 112.267 397.831 111.785 397.686 111.453C397.541 111.12 397.34 110.894 397.085 110.774C396.829 110.647 396.539 110.583 396.215 110.583C395.652 110.583 395.212 110.783 394.897 111.184C394.59 111.576 394.436 112.135 394.436 112.86H393.937C393.937 112.186 394.035 111.606 394.232 111.12C394.428 110.634 394.713 110.263 395.089 110.007C395.464 109.751 395.916 109.623 396.445 109.623C396.948 109.623 397.383 109.725 397.75 109.93C398.125 110.126 398.415 110.442 398.62 110.877C398.833 111.312 398.935 111.883 398.927 112.591V112.898H397.903ZM402.952 116.327C402.329 116.327 401.847 116.165 401.506 115.841C401.165 115.517 400.994 115.06 400.994 114.472V107.781H402.018V114.369C402.018 114.694 402.103 114.945 402.274 115.124C402.453 115.295 402.7 115.38 403.016 115.38C403.118 115.38 403.216 115.367 403.31 115.342C403.412 115.308 403.545 115.231 403.707 115.111L404.103 115.943C403.882 116.088 403.681 116.186 403.502 116.237C403.323 116.297 403.14 116.327 402.952 116.327ZM399.881 110.685V109.777H403.937V110.685H399.881ZM405.382 116.173V107.218H406.405V116.173H405.382ZM409.885 116.173V112.898H410.909V116.173H409.885ZM409.885 112.898C409.885 112.267 409.808 111.785 409.655 111.453C409.51 111.12 409.309 110.894 409.054 110.774C408.798 110.647 408.508 110.583 408.184 110.583C407.621 110.583 407.181 110.783 406.866 111.184C406.559 111.576 406.405 112.135 406.405 112.86H405.906C405.906 112.186 406.004 111.606 406.201 111.12C406.405 110.634 406.695 110.263 407.07 110.007C407.446 109.751 407.898 109.623 408.427 109.623C408.921 109.623 409.356 109.725 409.732 109.93C410.107 110.126 410.397 110.442 410.602 110.877C410.815 111.312 410.917 111.883 410.909 112.591V112.898H409.885Z" fill="#8B8B8B"/>
<path d="M417.891 109.407L421.671 112.896L424.869 109.407" stroke="#8B8B8B" stroke-width="0.872289"/>
<path d="M406.26 291.764C411.078 291.764 415.016 287.853 414.67 283.048C412.526 253.266 399.452 225.118 377.682 203.87C353.799 180.559 321.406 167.463 287.629 167.463C253.853 167.463 221.46 180.559 197.576 203.87C175.806 225.118 162.732 253.266 160.588 283.048C160.242 287.853 164.18 291.764 168.998 291.764H194.496C199.314 291.764 203.17 287.847 203.692 283.057C205.722 264.408 214.229 246.892 227.942 233.508C243.772 218.057 265.242 209.377 287.629 209.377C310.016 209.377 331.486 218.057 347.316 233.508C361.029 246.892 369.537 264.408 371.567 283.057C372.088 287.847 375.944 291.764 380.762 291.764H406.26Z" fill="#3A3A5A"/>
<path d="M321.865 181.226C323.304 176.58 320.67 171.625 315.923 170.569C299.514 166.92 282.497 166.475 265.858 169.292C246.305 172.604 227.816 180.329 211.865 191.851C195.914 203.374 182.942 218.376 173.985 235.66C166.376 250.344 161.842 266.33 160.615 282.684C160.255 287.489 164.182 291.411 169 291.425L194.854 291.499C199.671 291.513 203.538 287.608 204.076 282.821C205.173 273.058 208.06 263.542 212.624 254.735C218.536 243.328 227.097 233.427 237.625 225.822C248.152 218.217 260.355 213.118 273.26 210.933C283.327 209.228 293.604 209.333 303.588 211.217C308.277 212.102 313.086 209.572 314.498 205.014L321.865 181.226Z" fill="#0F322E"/>
<path d="M399.007 252.358C403.599 250.733 405.999 245.647 403.978 241.216C394.855 221.213 380.456 203.865 362.182 190.987C343.817 178.045 322.294 170.148 299.85 168.036C295.059 167.585 291.046 171.407 290.909 176.218L290.205 201.025C290.068 205.846 293.88 209.817 298.662 210.435C312.401 212.21 325.525 217.281 336.834 225.251C348.135 233.215 357.191 243.769 363.24 255.928C365.362 260.194 370.256 262.53 374.748 260.941L399.007 252.358Z" fill="#C4F01F"/>
<path d="M167.005 114.323L161.613 100.889H163.244L168.713 114.323H167.005ZM156.086 114.323L161.555 100.889H163.205L157.813 114.323H156.086ZM158.676 110.504V109.045H166.142V110.504H158.676ZM174.392 114.553C173.445 114.553 172.607 114.342 171.878 113.92C171.149 113.485 170.579 112.89 170.17 112.135C169.761 111.38 169.556 110.51 169.556 109.525C169.556 108.54 169.754 107.67 170.151 106.915C170.56 106.16 171.13 105.572 171.859 105.15C172.588 104.715 173.42 104.497 174.354 104.497C175.275 104.497 176.1 104.708 176.829 105.13C177.558 105.553 178.115 106.147 178.499 106.915L177.098 107.548C176.842 107.037 176.471 106.64 175.985 106.359C175.499 106.064 174.942 105.917 174.315 105.917C173.688 105.917 173.132 106.071 172.646 106.378C172.172 106.685 171.795 107.113 171.513 107.663C171.245 108.201 171.11 108.821 171.11 109.525C171.11 110.229 171.245 110.855 171.513 111.406C171.795 111.943 172.179 112.365 172.665 112.672C173.164 112.979 173.727 113.133 174.354 113.133C174.98 113.133 175.537 112.973 176.023 112.653C176.522 112.333 176.899 111.885 177.155 111.31L178.556 111.943C178.172 112.762 177.616 113.401 176.887 113.862C176.157 114.323 175.326 114.553 174.392 114.553ZM184.103 114.553C183.169 114.553 182.446 114.31 181.934 113.824C181.422 113.337 181.166 112.653 181.166 111.77V101.734H182.702V111.617C182.702 112.103 182.83 112.48 183.085 112.749C183.354 113.005 183.725 113.133 184.198 113.133C184.352 113.133 184.499 113.114 184.64 113.075C184.793 113.024 184.992 112.909 185.235 112.73L185.83 113.977C185.497 114.195 185.196 114.342 184.928 114.418C184.659 114.508 184.384 114.553 184.103 114.553ZM179.497 106.09V104.727H185.58V106.09H179.497ZM187.843 114.323V104.727H189.379V114.323H187.843ZM188.63 102.501C188.374 102.501 188.15 102.405 187.958 102.213C187.767 102.021 187.671 101.798 187.671 101.542C187.671 101.273 187.767 101.049 187.958 100.87C188.15 100.678 188.374 100.582 188.63 100.582C188.899 100.582 189.123 100.678 189.302 100.87C189.494 101.049 189.59 101.273 189.59 101.542C189.59 101.798 189.494 102.021 189.302 102.213C189.123 102.405 188.899 102.501 188.63 102.501ZM195.144 114.323L199.059 104.727H200.671L196.66 114.323H195.144ZM195.048 114.323L191.037 104.727H192.63L196.545 114.323H195.048ZM202.274 114.323V104.727H203.809V114.323H202.274ZM203.06 102.501C202.804 102.501 202.581 102.405 202.389 102.213C202.197 102.021 202.101 101.798 202.101 101.542C202.101 101.273 202.197 101.049 202.389 100.87C202.581 100.678 202.804 100.582 203.06 100.582C203.329 100.582 203.553 100.678 203.732 100.87C203.924 101.049 204.02 101.273 204.02 101.542C204.02 101.798 203.924 102.021 203.732 102.213C203.553 102.405 203.329 102.501 203.06 102.501ZM210.246 114.553C209.312 114.553 208.589 114.31 208.077 113.824C207.565 113.337 207.31 112.653 207.31 111.77V101.734H208.845V111.617C208.845 112.103 208.973 112.48 209.229 112.749C209.497 113.005 209.868 113.133 210.342 113.133C210.495 113.133 210.642 113.114 210.783 113.075C210.937 113.024 211.135 112.909 211.378 112.73L211.973 113.977C211.64 114.195 211.34 114.342 211.071 114.418C210.802 114.508 210.527 114.553 210.246 114.553ZM205.64 106.09V104.727H211.723V106.09H205.64ZM214.754 118.391C214.511 118.391 214.23 118.34 213.91 118.237C213.59 118.148 213.251 118.026 212.893 117.873L213.468 116.587C213.763 116.715 214.018 116.811 214.236 116.875C214.466 116.939 214.645 116.971 214.773 116.971C215.119 116.971 215.4 116.875 215.618 116.683C215.848 116.504 216.04 116.242 216.193 115.896L217.287 113.286L220.837 104.727H222.488L217.882 115.666C217.639 116.229 217.383 116.715 217.114 117.124C216.859 117.534 216.545 117.847 216.174 118.065C215.803 118.282 215.33 118.391 214.754 118.391ZM216.865 114.323L212.72 104.727H214.351L217.92 113.267L218.381 114.323H216.865Z" fill="#8B8B8B"/>
<path d="M256.712 261.352V247.919H264.983V249.953H258.938V253.522H264.273V255.518H258.938V259.318H265.041V261.352H256.712ZM266.631 261.352L270.565 255.863L273.309 251.757H275.842L272.1 257.053L269.202 261.352H266.631ZM273.52 261.352L270.68 257.053L266.88 251.757H269.413L272.177 255.863L276.072 261.352H273.52ZM277.544 265.19V251.757H279.559L279.694 253.522V265.19H277.544ZM282.726 261.582C281.92 261.582 281.223 261.377 280.634 260.968C280.058 260.546 279.617 259.957 279.31 259.202C279.003 258.448 278.849 257.565 278.849 256.554C278.849 255.531 279.003 254.648 279.31 253.906C279.617 253.151 280.058 252.569 280.634 252.16C281.223 251.737 281.92 251.526 282.726 251.526C283.596 251.526 284.351 251.737 284.99 252.16C285.643 252.569 286.148 253.151 286.506 253.906C286.877 254.648 287.063 255.531 287.063 256.554C287.063 257.565 286.877 258.448 286.506 259.202C286.148 259.957 285.643 260.546 284.99 260.968C284.351 261.377 283.596 261.582 282.726 261.582ZM282.189 259.625C282.7 259.625 283.154 259.497 283.551 259.241C283.948 258.972 284.261 258.608 284.491 258.147C284.734 257.686 284.856 257.156 284.856 256.554C284.856 255.953 284.741 255.422 284.511 254.961C284.293 254.501 283.986 254.143 283.589 253.887C283.193 253.631 282.732 253.503 282.208 253.503C281.722 253.503 281.287 253.631 280.903 253.887C280.519 254.143 280.218 254.501 280.001 254.961C279.796 255.422 279.694 255.953 279.694 256.554C279.694 257.156 279.796 257.686 280.001 258.147C280.218 258.608 280.513 258.972 280.884 259.241C281.267 259.497 281.702 259.625 282.189 259.625ZM293.178 261.582C292.245 261.582 291.413 261.371 290.684 260.949C289.967 260.514 289.398 259.919 288.976 259.164C288.566 258.409 288.362 257.539 288.362 256.554C288.362 255.569 288.573 254.699 288.995 253.944C289.417 253.19 289.993 252.601 290.722 252.179C291.464 251.744 292.309 251.526 293.255 251.526C294.112 251.526 294.886 251.75 295.577 252.198C296.268 252.633 296.812 253.266 297.208 254.098C297.618 254.929 297.823 255.921 297.823 257.072H290.281L290.569 256.804C290.569 257.392 290.697 257.904 290.952 258.339C291.208 258.761 291.547 259.087 291.969 259.318C292.392 259.548 292.859 259.663 293.37 259.663C293.959 259.663 294.445 259.535 294.829 259.279C295.213 259.011 295.513 258.665 295.731 258.243L297.631 259.049C297.362 259.561 297.017 260.008 296.594 260.392C296.185 260.776 295.692 261.07 295.117 261.275C294.554 261.48 293.908 261.582 293.178 261.582ZM290.703 255.691L290.396 255.422H295.808L295.52 255.691C295.52 255.166 295.405 254.738 295.174 254.405C294.944 254.059 294.65 253.804 294.292 253.637C293.946 253.458 293.581 253.369 293.198 253.369C292.814 253.369 292.43 253.458 292.046 253.637C291.662 253.804 291.343 254.059 291.087 254.405C290.831 254.738 290.703 255.166 290.703 255.691ZM299.469 261.352V251.757H301.484L301.618 253.522V261.352H299.469ZM305.974 261.352V256.439H308.124V261.352H305.974ZM305.974 256.439C305.974 255.671 305.885 255.083 305.706 254.674C305.539 254.251 305.296 253.957 304.976 253.791C304.669 253.624 304.305 253.541 303.882 253.541C303.166 253.529 302.61 253.765 302.213 254.251C301.816 254.738 301.618 255.435 301.618 256.343H300.812C300.812 255.332 300.959 254.469 301.253 253.752C301.548 253.023 301.97 252.473 302.52 252.102C303.07 251.718 303.723 251.526 304.477 251.526C305.245 251.526 305.897 251.68 306.435 251.987C306.985 252.294 307.401 252.774 307.682 253.426C307.976 254.066 308.124 254.904 308.124 255.94V256.439H305.974ZM313.793 261.582C313.154 261.582 312.565 261.486 312.028 261.294C311.491 261.102 311.03 260.834 310.646 260.488C310.262 260.13 309.968 259.714 309.763 259.241L311.625 258.416C311.817 258.774 312.098 259.075 312.469 259.318C312.853 259.561 313.275 259.682 313.736 259.682C314.235 259.682 314.631 259.599 314.926 259.433C315.233 259.254 315.386 259.011 315.386 258.704C315.386 258.409 315.271 258.185 315.041 258.032C314.811 257.866 314.484 257.731 314.062 257.629L313.16 257.379C312.252 257.149 311.542 256.785 311.03 256.286C310.518 255.774 310.262 255.192 310.262 254.539C310.262 253.58 310.569 252.838 311.184 252.313C311.81 251.789 312.706 251.526 313.87 251.526C314.459 251.526 314.996 251.616 315.482 251.795C315.981 251.961 316.41 252.204 316.768 252.524C317.126 252.831 317.376 253.196 317.516 253.618L315.732 254.424C315.604 254.104 315.361 253.861 315.002 253.695C314.644 253.516 314.248 253.426 313.813 253.426C313.378 253.426 313.039 253.522 312.796 253.714C312.552 253.893 312.431 254.149 312.431 254.482C312.431 254.674 312.54 254.853 312.757 255.019C312.975 255.173 313.288 255.3 313.697 255.403L314.83 255.671C315.457 255.825 315.968 256.068 316.365 256.401C316.762 256.721 317.056 257.085 317.248 257.495C317.44 257.891 317.536 258.294 317.536 258.704C317.536 259.279 317.369 259.785 317.037 260.22C316.717 260.655 316.275 260.994 315.712 261.237C315.15 261.467 314.51 261.582 313.793 261.582ZM323.519 261.582C322.586 261.582 321.754 261.371 321.025 260.949C320.308 260.514 319.739 259.919 319.317 259.164C318.907 258.409 318.703 257.539 318.703 256.554C318.703 255.569 318.914 254.699 319.336 253.944C319.758 253.19 320.334 252.601 321.063 252.179C321.805 251.744 322.65 251.526 323.596 251.526C324.453 251.526 325.227 251.75 325.918 252.198C326.609 252.633 327.153 253.266 327.549 254.098C327.959 254.929 328.164 255.921 328.164 257.072H320.622L320.91 256.804C320.91 257.392 321.038 257.904 321.293 258.339C321.549 258.761 321.888 259.087 322.31 259.318C322.733 259.548 323.2 259.663 323.711 259.663C324.3 259.663 324.786 259.535 325.17 259.279C325.554 259.011 325.854 258.665 326.072 258.243L327.972 259.049C327.703 259.561 327.358 260.008 326.935 260.392C326.526 260.776 326.033 261.07 325.458 261.275C324.895 261.48 324.249 261.582 323.519 261.582ZM321.044 255.691L320.737 255.422H326.149L325.861 255.691C325.861 255.166 325.746 254.738 325.515 254.405C325.285 254.059 324.991 253.804 324.633 253.637C324.287 253.458 323.922 253.369 323.539 253.369C323.155 253.369 322.771 253.458 322.387 253.637C322.003 253.804 321.684 254.059 321.428 254.405C321.172 254.738 321.044 255.166 321.044 255.691Z" fill="#212121"/>
<circle cx="166.381" cy="328.836" r="5.23373" fill="#0F322E"/>
<circle cx="341.129" cy="328.836" r="5.23373" fill="#C4F01F"/>
<path d="M182.346 332.113V323.565H185.045C185.631 323.565 186.131 323.654 186.547 323.834C186.962 324.013 187.283 324.277 187.511 324.627C187.739 324.969 187.853 325.389 187.853 325.885C187.853 326.3 187.76 326.667 187.572 326.984C187.385 327.294 187.121 327.546 186.779 327.741C187.202 327.945 187.528 328.218 187.756 328.56C187.992 328.902 188.11 329.309 188.11 329.781C188.11 330.277 188 330.701 187.78 331.051C187.56 331.393 187.247 331.657 186.84 331.845C186.441 332.024 185.96 332.113 185.399 332.113H182.346ZM183.371 331.185H185.35C185.887 331.185 186.306 331.059 186.608 330.807C186.917 330.546 187.072 330.192 187.072 329.744C187.072 329.264 186.897 328.889 186.547 328.621C186.197 328.344 185.708 328.205 185.081 328.205H183.371V331.185ZM183.371 327.314H185.301C185.773 327.314 186.144 327.188 186.412 326.935C186.681 326.683 186.815 326.333 186.815 325.885C186.815 325.421 186.657 325.067 186.339 324.823C186.03 324.57 185.59 324.444 185.02 324.444H183.371V327.314ZM189.591 332.113V326.007H190.568V332.113H189.591ZM190.092 324.591C189.929 324.591 189.787 324.53 189.665 324.407C189.543 324.285 189.482 324.143 189.482 323.98C189.482 323.809 189.543 323.667 189.665 323.553C189.787 323.431 189.929 323.369 190.092 323.369C190.263 323.369 190.406 323.431 190.52 323.553C190.642 323.667 190.703 323.809 190.703 323.98C190.703 324.143 190.642 324.285 190.52 324.407C190.406 324.53 190.263 324.591 190.092 324.591ZM192.369 332.113V323.565H193.346V332.113H192.369ZM195.052 332.113V323.565H196.029V332.113H195.052ZM199.872 332.26C199.425 332.26 199.034 332.195 198.7 332.064C198.366 331.926 198.085 331.747 197.857 331.527C197.638 331.307 197.479 331.067 197.381 330.807L198.236 330.452C198.374 330.729 198.582 330.953 198.859 331.124C199.136 331.295 199.441 331.381 199.775 331.381C200.157 331.381 200.479 331.307 200.74 331.161C201 331.006 201.13 330.79 201.13 330.514C201.13 330.261 201.033 330.058 200.837 329.903C200.65 329.748 200.369 329.622 199.995 329.524L199.408 329.366C198.855 329.219 198.423 328.999 198.114 328.706C197.805 328.405 197.65 328.067 197.65 327.693C197.65 327.114 197.837 326.667 198.212 326.349C198.594 326.024 199.16 325.861 199.909 325.861C200.267 325.861 200.593 325.914 200.886 326.019C201.179 326.125 201.432 326.276 201.643 326.471C201.855 326.659 202.01 326.882 202.107 327.143L201.252 327.522C201.147 327.245 200.972 327.045 200.727 326.923C200.483 326.801 200.186 326.74 199.836 326.74C199.461 326.74 199.168 326.821 198.957 326.984C198.745 327.139 198.639 327.359 198.639 327.644C198.639 327.806 198.725 327.961 198.895 328.108C199.075 328.246 199.335 328.36 199.677 328.45L200.288 328.608C200.687 328.706 201.02 328.853 201.289 329.048C201.558 329.235 201.761 329.451 201.9 329.695C202.038 329.94 202.107 330.2 202.107 330.477C202.107 330.843 202.01 331.161 201.814 331.429C201.619 331.698 201.354 331.906 201.02 332.052C200.687 332.191 200.304 332.26 199.872 332.26Z" fill="#8B8B8B"/>
<path d="M165.7 354.492C165.261 354.492 164.811 354.429 164.35 354.304C163.9 354.168 163.471 353.964 163.063 353.691C162.665 353.419 162.335 353.069 162.073 352.639L163.141 352.027C163.507 352.488 163.905 352.823 164.334 353.032C164.763 353.241 165.208 353.346 165.669 353.346C166.391 353.346 166.977 353.126 167.427 352.686C167.888 352.236 168.118 351.65 168.118 350.928C168.118 350.216 167.898 349.635 167.459 349.185C167.019 348.735 166.444 348.51 165.732 348.51C165.344 348.51 164.962 348.599 164.586 348.777C164.209 348.944 163.916 349.154 163.706 349.405L162.513 349.122L163.047 343.313H168.903V344.506H164.224L163.895 348.008C164.188 347.83 164.512 347.688 164.868 347.584C165.224 347.479 165.585 347.427 165.952 347.427C166.621 347.427 167.218 347.573 167.741 347.866C168.265 348.159 168.678 348.568 168.982 349.091C169.285 349.614 169.437 350.216 169.437 350.897C169.437 351.608 169.275 352.236 168.95 352.781C168.636 353.315 168.197 353.733 167.632 354.037C167.077 354.34 166.433 354.492 165.7 354.492ZM174.732 354.492C174.292 354.492 173.842 354.429 173.381 354.304C172.931 354.168 172.502 353.964 172.094 353.691C171.696 353.419 171.366 353.069 171.105 352.639L172.172 352.027C172.539 352.488 172.936 352.823 173.366 353.032C173.795 353.241 174.24 353.346 174.7 353.346C175.422 353.346 176.009 353.126 176.459 352.686C176.919 352.236 177.15 351.65 177.15 350.928C177.15 350.216 176.93 349.635 176.49 349.185C176.05 348.735 175.475 348.51 174.763 348.51C174.376 348.51 173.994 348.599 173.617 348.777C173.24 348.944 172.947 349.154 172.738 349.405L171.544 349.122L172.078 343.313H177.935V344.506H173.256L172.926 348.008C173.219 347.83 173.544 347.688 173.899 347.584C174.255 347.479 174.616 347.427 174.983 347.427C175.653 347.427 176.249 347.573 176.773 347.866C177.296 348.159 177.71 348.568 178.013 349.091C178.317 349.614 178.468 350.216 178.468 350.897C178.468 351.608 178.306 352.236 177.982 352.781C177.668 353.315 177.228 353.733 176.663 354.037C176.108 354.34 175.464 354.492 174.732 354.492ZM180.733 354.304L188.536 343.313H189.996L182.146 354.304H180.733ZM188.348 354.555C187.877 354.555 187.453 354.445 187.076 354.225C186.709 353.995 186.422 353.686 186.212 353.299C186.013 352.901 185.914 352.451 185.914 351.949C185.914 351.436 186.013 350.986 186.212 350.598C186.422 350.211 186.709 349.907 187.076 349.688C187.453 349.457 187.877 349.342 188.348 349.342C188.829 349.342 189.253 349.457 189.619 349.688C189.986 349.907 190.274 350.211 190.483 350.598C190.692 350.986 190.797 351.436 190.797 351.949C190.797 352.451 190.692 352.901 190.483 353.299C190.274 353.686 189.986 353.995 189.619 354.225C189.253 354.445 188.829 354.555 188.348 354.555ZM188.348 353.55C188.756 353.55 189.086 353.398 189.337 353.095C189.588 352.791 189.714 352.409 189.714 351.949C189.714 351.488 189.588 351.106 189.337 350.802C189.086 350.499 188.756 350.347 188.348 350.347C187.96 350.347 187.636 350.499 187.374 350.802C187.123 351.106 186.997 351.488 186.997 351.949C186.997 352.409 187.123 352.791 187.374 353.095C187.636 353.398 187.96 353.55 188.348 353.55ZM182.397 348.274C181.915 348.274 181.491 348.165 181.125 347.945C180.759 347.714 180.471 347.406 180.261 347.018C180.052 346.621 179.947 346.17 179.947 345.668C179.947 345.155 180.052 344.705 180.261 344.318C180.471 343.93 180.759 343.627 181.125 343.407C181.491 343.177 181.915 343.062 182.397 343.062C182.878 343.062 183.302 343.177 183.669 343.407C184.035 343.627 184.323 343.93 184.532 344.318C184.742 344.705 184.846 345.155 184.846 345.668C184.846 346.17 184.742 346.621 184.532 347.018C184.323 347.406 184.035 347.714 183.669 347.945C183.302 348.165 182.878 348.274 182.397 348.274ZM182.397 347.27C182.795 347.27 183.119 347.118 183.37 346.814C183.622 346.511 183.747 346.129 183.747 345.668C183.747 345.207 183.622 344.825 183.37 344.522C183.119 344.218 182.795 344.067 182.397 344.067C182.01 344.067 181.685 344.218 181.423 344.522C181.172 344.825 181.047 345.207 181.047 345.668C181.047 346.129 181.172 346.511 181.423 346.814C181.685 347.118 182.01 347.27 182.397 347.27Z" fill="#212121"/>
<path d="M338.923 354.304V353.205C338.923 352.859 338.991 352.519 339.127 352.184C339.273 351.839 339.478 351.498 339.739 351.163C340.011 350.829 340.341 350.514 340.728 350.221L343.005 348.51C343.277 348.322 343.513 348.107 343.712 347.866C343.921 347.615 344.083 347.359 344.198 347.097C344.314 346.825 344.371 346.563 344.371 346.312C344.371 345.945 344.282 345.616 344.104 345.323C343.926 345.019 343.675 344.778 343.351 344.6C343.026 344.422 342.644 344.333 342.204 344.333C341.775 344.333 341.398 344.417 341.074 344.585C340.749 344.742 340.482 344.956 340.273 345.228C340.064 345.49 339.912 345.773 339.818 346.076L338.467 345.809C338.593 345.338 338.818 344.899 339.143 344.49C339.478 344.082 339.902 343.753 340.414 343.501C340.927 343.25 341.498 343.124 342.126 343.124C342.859 343.124 343.492 343.266 344.026 343.548C344.56 343.821 344.973 344.197 345.266 344.679C345.57 345.15 345.721 345.689 345.721 346.296C345.721 346.872 345.564 347.416 345.25 347.929C344.936 348.442 344.481 348.939 343.884 349.421L341.733 351.054C341.315 351.368 340.99 351.697 340.76 352.043C340.54 352.388 340.414 352.749 340.383 353.126H345.878V354.304H338.923ZM351.823 354.492C350.985 354.492 350.242 354.251 349.593 353.77C348.944 353.278 348.437 352.608 348.07 351.76C347.704 350.902 347.521 349.918 347.521 348.808C347.521 347.699 347.704 346.72 348.07 345.872C348.437 345.014 348.939 344.344 349.578 343.862C350.227 343.37 350.975 343.124 351.823 343.124C352.671 343.124 353.414 343.37 354.052 343.862C354.701 344.344 355.209 345.014 355.575 345.872C355.952 346.72 356.141 347.699 356.141 348.808C356.141 349.918 355.957 350.902 355.591 351.76C355.225 352.608 354.717 353.278 354.068 353.77C353.419 354.251 352.671 354.492 351.823 354.492ZM351.823 353.299C352.409 353.299 352.927 353.105 353.377 352.718C353.838 352.331 354.194 351.802 354.445 351.132C354.707 350.462 354.837 349.688 354.837 348.808C354.837 347.929 354.707 347.154 354.445 346.485C354.194 345.804 353.838 345.276 353.377 344.899C352.927 344.511 352.409 344.318 351.823 344.318C351.237 344.318 350.718 344.511 350.268 344.899C349.818 345.276 349.462 345.804 349.201 346.485C348.949 347.154 348.824 347.929 348.824 348.808C348.824 349.688 348.949 350.462 349.201 351.132C349.462 351.802 349.818 352.331 350.268 352.718C350.729 353.105 351.247 353.299 351.823 353.299ZM358.38 354.304L366.184 343.313H367.644L359.793 354.304H358.38ZM365.995 354.555C365.524 354.555 365.1 354.445 364.723 354.225C364.357 353.995 364.069 353.686 363.86 353.299C363.661 352.901 363.561 352.451 363.561 351.949C363.561 351.436 363.661 350.986 363.86 350.598C364.069 350.211 364.357 349.907 364.723 349.688C365.1 349.457 365.524 349.342 365.995 349.342C366.477 349.342 366.901 349.457 367.267 349.688C367.633 349.907 367.921 350.211 368.13 350.598C368.34 350.986 368.445 351.436 368.445 351.949C368.445 352.451 368.34 352.901 368.13 353.299C367.921 353.686 367.633 353.995 367.267 354.225C366.901 354.445 366.477 354.555 365.995 354.555ZM365.995 353.55C366.403 353.55 366.733 353.398 366.984 353.095C367.236 352.791 367.361 352.409 367.361 351.949C367.361 351.488 367.236 351.106 366.984 350.802C366.733 350.499 366.403 350.347 365.995 350.347C365.608 350.347 365.283 350.499 365.022 350.802C364.77 351.106 364.645 351.488 364.645 351.949C364.645 352.409 364.77 352.791 365.022 353.095C365.283 353.398 365.608 353.55 365.995 353.55ZM360.044 348.274C359.563 348.274 359.139 348.165 358.773 347.945C358.406 347.714 358.118 347.406 357.909 347.018C357.7 346.621 357.595 346.17 357.595 345.668C357.595 345.155 357.7 344.705 357.909 344.318C358.118 343.93 358.406 343.627 358.773 343.407C359.139 343.177 359.563 343.062 360.044 343.062C360.526 343.062 360.95 343.177 361.316 343.407C361.683 343.627 361.97 343.93 362.18 344.318C362.389 344.705 362.494 345.155 362.494 345.668C362.494 346.17 362.389 346.621 362.18 347.018C361.97 347.406 361.683 347.714 361.316 347.945C360.95 348.165 360.526 348.274 360.044 348.274ZM360.044 347.27C360.442 347.27 360.767 347.118 361.018 346.814C361.269 346.511 361.395 346.129 361.395 345.668C361.395 345.207 361.269 344.825 361.018 344.522C360.767 344.218 360.442 344.067 360.044 344.067C359.657 344.067 359.333 344.218 359.071 344.522C358.82 344.825 358.694 345.207 358.694 345.668C358.694 346.129 358.82 346.511 359.071 346.814C359.333 347.118 359.657 347.27 360.044 347.27Z" fill="#212121"/>
<path d="M357.697 333.132C357.225 333.132 356.805 333.083 356.439 332.986C356.073 332.88 355.755 332.737 355.487 332.558C355.218 332.371 354.998 332.167 354.827 331.948C354.656 331.72 354.53 331.479 354.448 331.227L355.438 330.885C355.56 331.243 355.804 331.557 356.17 331.825C356.545 332.086 357.001 332.216 357.538 332.216C358.198 332.216 358.715 332.086 359.089 331.825C359.464 331.565 359.651 331.219 359.651 330.787C359.651 330.388 359.484 330.067 359.15 329.823C358.816 329.57 358.377 329.375 357.831 329.236L356.891 328.992C356.508 328.895 356.154 328.752 355.828 328.565C355.511 328.369 355.254 328.125 355.059 327.832C354.872 327.531 354.778 327.173 354.778 326.757C354.778 325.984 355.027 325.382 355.523 324.95C356.028 324.51 356.753 324.291 357.697 324.291C358.259 324.291 358.743 324.384 359.15 324.571C359.557 324.751 359.887 324.983 360.139 325.268C360.4 325.544 360.583 325.846 360.689 326.171L359.712 326.513C359.557 326.106 359.297 325.789 358.93 325.561C358.564 325.325 358.12 325.207 357.599 325.207C357.054 325.207 356.618 325.341 356.293 325.61C355.975 325.87 355.816 326.228 355.816 326.684C355.816 327.075 355.942 327.376 356.195 327.588C356.447 327.791 356.777 327.942 357.184 328.04L358.124 328.272C358.955 328.467 359.59 328.793 360.029 329.249C360.477 329.696 360.701 330.181 360.701 330.702C360.701 331.15 360.587 331.561 360.359 331.935C360.131 332.302 359.793 332.595 359.346 332.815C358.906 333.026 358.356 333.132 357.697 333.132ZM362.182 332.986V324.437H363.159V332.986H362.182ZM366.481 332.986V329.859H367.457V332.986H366.481ZM366.481 329.859C366.481 329.257 366.407 328.797 366.261 328.479C366.122 328.162 365.931 327.946 365.687 327.832C365.442 327.71 365.166 327.649 364.856 327.649C364.319 327.649 363.9 327.84 363.598 328.223C363.305 328.597 363.159 329.131 363.159 329.823H362.683C362.683 329.18 362.776 328.626 362.963 328.162C363.159 327.698 363.436 327.344 363.794 327.099C364.152 326.855 364.584 326.733 365.088 326.733C365.561 326.733 365.976 326.831 366.334 327.026C366.692 327.213 366.969 327.515 367.164 327.93C367.368 328.345 367.466 328.89 367.457 329.566V329.859H366.481ZM371.69 333.132C371.096 333.132 370.567 332.998 370.103 332.729C369.647 332.452 369.289 332.074 369.028 331.593C368.768 331.113 368.637 330.559 368.637 329.933C368.637 329.306 368.764 328.752 369.016 328.272C369.276 327.791 369.635 327.417 370.091 327.148C370.555 326.871 371.08 326.733 371.666 326.733C372.268 326.733 372.798 326.871 373.254 327.148C373.718 327.417 374.076 327.791 374.328 328.272C374.589 328.752 374.719 329.306 374.719 329.933C374.719 330.559 374.589 331.113 374.328 331.593C374.076 332.074 373.722 332.452 373.266 332.729C372.81 332.998 372.285 333.132 371.69 333.132ZM371.69 332.228C372.097 332.228 372.452 332.131 372.753 331.935C373.054 331.74 373.29 331.471 373.461 331.129C373.64 330.787 373.73 330.389 373.73 329.933C373.73 329.477 373.64 329.078 373.461 328.736C373.29 328.394 373.05 328.125 372.741 327.93C372.431 327.734 372.073 327.637 371.666 327.637C371.267 327.637 370.913 327.734 370.604 327.93C370.302 328.125 370.062 328.394 369.883 328.736C369.712 329.078 369.627 329.477 369.627 329.933C369.627 330.38 369.712 330.779 369.883 331.129C370.062 331.471 370.306 331.74 370.616 331.935C370.933 332.131 371.291 332.228 371.69 332.228ZM376.137 335.428V326.88H377.052L377.113 328.003V335.428H376.137ZM379.177 333.132C378.664 333.132 378.213 332.998 377.822 332.729C377.439 332.46 377.142 332.086 376.93 331.606C376.719 331.117 376.613 330.559 376.613 329.933C376.613 329.298 376.719 328.74 376.93 328.26C377.142 327.779 377.439 327.405 377.822 327.136C378.213 326.867 378.664 326.733 379.177 326.733C379.723 326.733 380.203 326.867 380.618 327.136C381.034 327.405 381.355 327.779 381.583 328.26C381.819 328.74 381.937 329.298 381.937 329.933C381.937 330.559 381.819 331.117 381.583 331.606C381.355 332.086 381.034 332.46 380.618 332.729C380.203 332.998 379.723 333.132 379.177 333.132ZM378.958 332.241C379.34 332.241 379.678 332.143 379.971 331.948C380.272 331.752 380.508 331.479 380.679 331.129C380.859 330.779 380.948 330.38 380.948 329.933C380.948 329.485 380.863 329.086 380.692 328.736C380.529 328.386 380.297 328.113 379.996 327.918C379.694 327.722 379.352 327.625 378.97 327.625C378.611 327.625 378.29 327.722 378.005 327.918C377.728 328.113 377.508 328.386 377.346 328.736C377.191 329.086 377.113 329.485 377.113 329.933C377.113 330.38 377.191 330.779 377.346 331.129C377.508 331.479 377.728 331.752 378.005 331.948C378.282 332.143 378.599 332.241 378.958 332.241ZM383.352 335.428V326.88H384.268L384.329 328.003V335.428H383.352ZM386.392 333.132C385.88 333.132 385.428 332.998 385.037 332.729C384.654 332.46 384.357 332.086 384.145 331.606C383.934 331.117 383.828 330.559 383.828 329.933C383.828 329.298 383.934 328.74 384.145 328.26C384.357 327.779 384.654 327.405 385.037 327.136C385.428 326.867 385.88 326.733 386.392 326.733C386.938 326.733 387.418 326.867 387.833 327.136C388.249 327.405 388.57 327.779 388.798 328.26C389.034 328.74 389.152 329.298 389.152 329.933C389.152 330.559 389.034 331.117 388.798 331.606C388.57 332.086 388.249 332.46 387.833 332.729C387.418 332.998 386.938 333.132 386.392 333.132ZM386.173 332.241C386.555 332.241 386.893 332.143 387.186 331.948C387.487 331.752 387.724 331.479 387.895 331.129C388.074 330.779 388.163 330.38 388.163 329.933C388.163 329.485 388.078 329.086 387.907 328.736C387.744 328.386 387.512 328.113 387.211 327.918C386.909 327.722 386.567 327.625 386.185 327.625C385.827 327.625 385.505 327.722 385.22 327.918C384.943 328.113 384.723 328.386 384.561 328.736C384.406 329.086 384.329 329.485 384.329 329.933C384.329 330.38 384.406 330.779 384.561 331.129C384.723 331.479 384.943 331.752 385.22 331.948C385.497 332.143 385.814 332.241 386.173 332.241ZM390.567 332.986V326.88H391.544V332.986H390.567ZM391.067 325.463C390.905 325.463 390.762 325.402 390.64 325.28C390.518 325.158 390.457 325.015 390.457 324.852C390.457 324.681 390.518 324.539 390.64 324.425C390.762 324.303 390.905 324.242 391.067 324.242C391.238 324.242 391.381 324.303 391.495 324.425C391.617 324.539 391.678 324.681 391.678 324.852C391.678 325.015 391.617 325.158 391.495 325.28C391.381 325.402 391.238 325.463 391.067 325.463ZM393.344 332.986V326.88H394.26L394.321 328.003V332.986H393.344ZM397.63 332.986V329.859H398.607V332.986H397.63ZM397.63 329.859C397.63 329.257 397.561 328.797 397.423 328.479C397.284 328.162 397.093 327.946 396.849 327.832C396.605 327.71 396.328 327.649 396.019 327.649C395.481 327.649 395.062 327.84 394.761 328.223C394.468 328.597 394.321 329.131 394.321 329.823H393.845C393.845 329.18 393.938 328.626 394.126 328.162C394.313 327.698 394.586 327.344 394.944 327.099C395.302 326.855 395.734 326.733 396.238 326.733C396.719 326.733 397.134 326.831 397.484 327.026C397.842 327.213 398.119 327.515 398.314 327.93C398.518 328.345 398.616 328.89 398.607 329.566V329.859H397.63ZM402.596 335.575C402.205 335.575 401.847 335.534 401.521 335.452C401.204 335.379 400.931 335.294 400.703 335.196C400.483 335.106 400.325 335.029 400.227 334.964L400.593 334.17C400.699 334.227 400.85 334.296 401.045 334.378C401.241 334.467 401.469 334.541 401.729 334.598C401.998 334.663 402.283 334.695 402.584 334.695C402.975 334.695 403.325 334.614 403.634 334.451C403.952 334.296 404.196 334.048 404.367 333.706C404.546 333.372 404.636 332.941 404.636 332.412V326.88H405.612V332.399C405.612 333.1 405.482 333.686 405.222 334.158C404.961 334.63 404.603 334.984 404.147 335.22C403.691 335.457 403.174 335.575 402.596 335.575ZM402.559 332.937C402.014 332.937 401.534 332.806 401.118 332.546C400.703 332.285 400.378 331.923 400.142 331.459C399.914 330.987 399.8 330.45 399.8 329.847C399.8 329.228 399.914 328.687 400.142 328.223C400.378 327.751 400.703 327.384 401.118 327.124C401.534 326.863 402.014 326.733 402.559 326.733C403.072 326.733 403.52 326.863 403.903 327.124C404.285 327.384 404.583 327.751 404.794 328.223C405.014 328.687 405.124 329.228 405.124 329.847C405.124 330.458 405.014 330.995 404.794 331.459C404.583 331.923 404.285 332.285 403.903 332.546C403.52 332.806 403.072 332.937 402.559 332.937ZM402.792 332.094C403.15 332.094 403.467 331.996 403.744 331.801C404.021 331.606 404.237 331.341 404.391 331.007C404.546 330.665 404.623 330.27 404.623 329.823C404.623 329.391 404.542 329.009 404.379 328.675C404.224 328.333 404.009 328.068 403.732 327.881C403.463 327.686 403.146 327.588 402.779 327.588C402.397 327.588 402.055 327.686 401.753 327.881C401.46 328.068 401.228 328.333 401.057 328.675C400.895 329.009 400.813 329.391 400.813 329.823C400.813 330.27 400.899 330.665 401.07 331.007C401.241 331.341 401.473 331.606 401.766 331.801C402.067 331.996 402.409 332.094 402.792 332.094Z" fill="#8B8B8B"/>
<rect x="160.711" y="379.284" width="259.942" height="40.9976" rx="8.28675" stroke="#C4F01F" stroke-width="0.872289"/>
<path d="M222.443 404.782L226.712 394.334H228.041L223.712 404.782H222.443ZM222.309 404.782L217.981 394.334H219.309L223.563 404.782H222.309ZM229.315 404.782V397.32H230.509V404.782H229.315ZM229.927 395.588C229.728 395.588 229.553 395.514 229.404 395.364C229.255 395.215 229.18 395.041 229.18 394.842C229.18 394.633 229.255 394.459 229.404 394.319C229.553 394.17 229.728 394.096 229.927 394.096C230.136 394.096 230.31 394.17 230.449 394.319C230.598 394.459 230.673 394.633 230.673 394.842C230.673 395.041 230.598 395.215 230.449 395.364C230.31 395.514 230.136 395.588 229.927 395.588ZM235.978 404.962C235.251 404.962 234.61 404.797 234.052 404.469C233.495 404.131 233.057 403.668 232.739 403.081C232.43 402.494 232.276 401.817 232.276 401.051C232.276 400.285 232.43 399.608 232.739 399.021C233.057 398.434 233.49 397.976 234.037 397.648C234.595 397.31 235.232 397.14 235.948 397.14C236.645 397.14 237.247 397.315 237.754 397.663C238.261 398.001 238.655 398.479 238.933 399.096C239.212 399.713 239.351 400.439 239.351 401.275H233.187L233.485 401.021C233.485 401.618 233.59 402.131 233.799 402.559C234.018 402.986 234.321 403.315 234.709 403.544C235.097 403.763 235.54 403.872 236.038 403.872C236.565 403.872 237.008 403.748 237.366 403.499C237.734 403.25 238.018 402.922 238.217 402.514L239.247 403.036C239.058 403.424 238.804 403.763 238.485 404.051C238.177 404.34 237.809 404.564 237.381 404.723C236.963 404.882 236.495 404.962 235.978 404.962ZM233.56 400.514L233.246 400.275H238.396L238.082 400.529C238.082 400.051 237.988 399.638 237.799 399.29C237.61 398.941 237.356 398.673 237.038 398.484C236.719 398.295 236.351 398.2 235.933 398.2C235.525 398.2 235.137 398.295 234.769 398.484C234.411 398.673 234.117 398.941 233.888 399.29C233.669 399.628 233.56 400.036 233.56 400.514ZM247.444 404.782L249.966 397.32H251.175L248.638 404.782H247.444ZM242.369 404.782L244.892 397.32H246.011L243.518 404.782H242.369ZM242.309 404.782L239.772 397.32H240.981L243.474 404.782H242.309ZM247.444 404.782L244.951 397.32H246.086L248.578 404.782H247.444ZM260.657 404.782L260.597 403.559V400.842C260.597 400.255 260.533 399.772 260.403 399.394C260.274 399.006 260.07 398.713 259.791 398.514C259.513 398.315 259.149 398.215 258.702 398.215C258.294 398.215 257.94 398.3 257.642 398.469C257.353 398.628 257.115 398.887 256.926 399.245L255.851 398.827C256.04 398.479 256.269 398.18 256.537 397.932C256.806 397.673 257.12 397.479 257.478 397.349C257.836 397.21 258.244 397.14 258.702 397.14C259.398 397.14 259.97 397.28 260.418 397.558C260.876 397.827 261.219 398.23 261.448 398.767C261.677 399.295 261.786 399.951 261.776 400.738L261.762 404.782H260.657ZM258.418 404.962C257.542 404.962 256.856 404.763 256.358 404.365C255.871 403.957 255.627 403.394 255.627 402.678C255.627 401.922 255.876 401.345 256.373 400.947C256.881 400.539 257.587 400.335 258.493 400.335H260.627V401.335H258.761C258.065 401.335 257.567 401.449 257.269 401.678C256.98 401.907 256.836 402.235 256.836 402.663C256.836 403.051 256.98 403.36 257.269 403.588C257.557 403.807 257.96 403.917 258.478 403.917C258.906 403.917 259.279 403.827 259.597 403.648C259.916 403.459 260.159 403.195 260.329 402.857C260.508 402.509 260.597 402.101 260.597 401.633H261.105C261.105 402.648 260.876 403.459 260.418 404.066C259.96 404.663 259.294 404.962 258.418 404.962ZM263.669 404.782V394.334H264.863V404.782H263.669ZM266.948 404.782V394.334H268.142V404.782H266.948ZM278.513 404.782L278.453 403.559V400.842C278.453 400.255 278.388 399.772 278.259 399.394C278.13 399.006 277.926 398.713 277.647 398.514C277.368 398.315 277.005 398.215 276.557 398.215C276.149 398.215 275.796 398.3 275.498 398.469C275.209 398.628 274.97 398.887 274.781 399.245L273.706 398.827C273.896 398.479 274.124 398.18 274.393 397.932C274.662 397.673 274.975 397.479 275.333 397.349C275.692 397.21 276.1 397.14 276.557 397.14C277.254 397.14 277.826 397.28 278.274 397.558C278.732 397.827 279.075 398.23 279.304 398.767C279.533 399.295 279.642 399.951 279.632 400.738L279.617 404.782H278.513ZM276.274 404.962C275.398 404.962 274.711 404.763 274.214 404.365C273.726 403.957 273.483 403.394 273.483 402.678C273.483 401.922 273.731 401.345 274.229 400.947C274.736 400.539 275.443 400.335 276.348 400.335H278.483V401.335H276.617C275.92 401.335 275.423 401.449 275.124 401.678C274.836 401.907 274.692 402.235 274.692 402.663C274.692 403.051 274.836 403.36 275.124 403.588C275.413 403.807 275.816 403.917 276.333 403.917C276.761 403.917 277.134 403.827 277.453 403.648C277.771 403.459 278.015 403.195 278.184 402.857C278.363 402.509 278.453 402.101 278.453 401.633H278.96C278.96 402.648 278.732 403.459 278.274 404.066C277.816 404.663 277.149 404.962 276.274 404.962ZM284.853 404.962C284.116 404.962 283.464 404.797 282.897 404.469C282.33 404.131 281.887 403.668 281.569 403.081C281.25 402.494 281.091 401.817 281.091 401.051C281.091 400.285 281.246 399.608 281.554 399.021C281.872 398.434 282.315 397.976 282.882 397.648C283.45 397.31 284.096 397.14 284.823 397.14C285.539 397.14 286.181 397.305 286.748 397.633C287.315 397.961 287.748 398.424 288.047 399.021L286.957 399.514C286.758 399.116 286.47 398.807 286.091 398.588C285.713 398.359 285.28 398.245 284.793 398.245C284.305 398.245 283.872 398.364 283.494 398.603C283.126 398.842 282.833 399.175 282.614 399.603C282.405 400.021 282.3 400.504 282.3 401.051C282.3 401.598 282.405 402.086 282.614 402.514C282.833 402.932 283.131 403.26 283.509 403.499C283.897 403.738 284.335 403.857 284.823 403.857C285.31 403.857 285.743 403.733 286.121 403.484C286.509 403.235 286.803 402.887 287.002 402.439L288.091 402.932C287.793 403.569 287.36 404.066 286.793 404.424C286.226 404.782 285.579 404.962 284.853 404.962ZM292.405 404.962C291.679 404.962 291.117 404.773 290.719 404.394C290.321 404.016 290.122 403.484 290.122 402.797V394.991H291.316V402.678C291.316 403.056 291.415 403.35 291.614 403.559C291.823 403.758 292.112 403.857 292.48 403.857C292.599 403.857 292.714 403.842 292.823 403.812C292.943 403.772 293.097 403.683 293.286 403.544L293.749 404.514C293.49 404.683 293.256 404.797 293.047 404.857C292.838 404.927 292.624 404.962 292.405 404.962ZM288.823 398.379V397.32H293.555V398.379H288.823ZM295.315 404.782V397.32H296.509V404.782H295.315ZM295.927 395.588C295.728 395.588 295.554 395.514 295.404 395.364C295.255 395.215 295.18 395.041 295.18 394.842C295.18 394.633 295.255 394.459 295.404 394.319C295.554 394.17 295.728 394.096 295.927 394.096C296.136 394.096 296.31 394.17 296.449 394.319C296.598 394.459 296.673 394.633 296.673 394.842C296.673 395.041 296.598 395.215 296.449 395.364C296.31 395.514 296.136 395.588 295.927 395.588ZM300.993 404.782L304.038 397.32H305.292L302.172 404.782H300.993ZM300.918 404.782L297.799 397.32H299.038L302.082 404.782H300.918ZM306.538 404.782V397.32H307.732V404.782H306.538ZM307.15 395.588C306.951 395.588 306.777 395.514 306.628 395.364C306.479 395.215 306.404 395.041 306.404 394.842C306.404 394.633 306.479 394.459 306.628 394.319C306.777 394.17 306.951 394.096 307.15 394.096C307.359 394.096 307.533 394.17 307.673 394.319C307.822 394.459 307.897 394.633 307.897 394.842C307.897 395.041 307.822 395.215 307.673 395.364C307.533 395.514 307.359 395.588 307.15 395.588ZM312.739 404.962C312.012 404.962 311.45 404.773 311.052 404.394C310.654 404.016 310.455 403.484 310.455 402.797V394.991H311.649V402.678C311.649 403.056 311.749 403.35 311.948 403.559C312.157 403.758 312.445 403.857 312.813 403.857C312.933 403.857 313.047 403.842 313.157 403.812C313.276 403.772 313.43 403.683 313.619 403.544L314.082 404.514C313.823 404.683 313.59 404.797 313.381 404.857C313.172 404.927 312.958 404.962 312.739 404.962ZM309.157 398.379V397.32H313.888V398.379H309.157ZM316.245 407.947C316.056 407.947 315.837 407.907 315.589 407.827C315.34 407.758 315.076 407.663 314.798 407.544L315.245 406.544C315.474 406.643 315.673 406.718 315.842 406.768C316.021 406.817 316.161 406.842 316.26 406.842C316.529 406.842 316.748 406.768 316.917 406.618C317.096 406.479 317.245 406.275 317.365 406.006L318.216 403.976L320.977 397.32H322.26L318.678 405.827C318.489 406.265 318.29 406.643 318.081 406.962C317.882 407.28 317.638 407.524 317.35 407.693C317.061 407.862 316.693 407.947 316.245 407.947ZM317.887 404.782L314.663 397.32H315.932L318.708 403.962L319.066 404.782H317.887Z" fill="#212121"/>
<path d="M363.733 400.06C363.887 399.907 363.887 399.658 363.733 399.505L361.235 397.007C361.082 396.854 360.833 396.854 360.68 397.007C360.527 397.16 360.527 397.409 360.68 397.562L362.901 399.782L360.68 402.003C360.527 402.156 360.527 402.405 360.68 402.558C360.833 402.711 361.082 402.711 361.235 402.558L363.733 400.06ZM349.499 400.175H363.456V399.39H349.499V400.175Z" fill="#C4F01F"/>
</g>
<defs>
<filter id="filter0_d_133_2350" x="0.064249" y="0.370811" width="522.404" height="558.168" filterUnits="userSpaceOnUse" color-interpolation-filters="sRGB">
<feFlood flood-opacity="0" result="BackgroundImageFix"/>
<feColorMatrix in="SourceAlpha" type="matrix" values="0 0 0 0 0 0 0 0 0 0 0 0 0 0 0 0 0 0 127 0" result="hardAlpha"/>
<feOffset dx="-29.8517" dy="23.4549"/>
<feGaussianBlur stdDeviation="49.042"/>
<feComposite in2="hardAlpha" operator="out"/>
<feColorMatrix type="matrix" values="0 0 0 0 0 0 0 0 0 0 0 0 0 0 0 0 0 0 0.24 0"/>
<feBlend mode="normal" in2="BackgroundImageFix" result="effect1_dropShadow_133_2350"/>
<feBlend mode="normal" in="SourceGraphic" in2="effect1_dropShadow_133_2350" result="shape"/>
</filter>
</defs>
</svg>
