<svg width="390" height="377" viewBox="0 0 390 377" fill="none" xmlns="http://www.w3.org/2000/svg">
<rect width="390" height="377" rx="20" fill="white"/>
<path d="M43.598 43.716C42.962 43.716 42.368 43.638 41.816 43.482C41.264 43.326 40.772 43.11 40.34 42.834C39.908 42.546 39.548 42.228 39.26 41.88C38.984 41.532 38.804 41.166 38.72 40.782L41.132 40.062C41.288 40.47 41.564 40.824 41.96 41.124C42.356 41.412 42.854 41.562 43.454 41.574C44.09 41.586 44.606 41.448 45.002 41.16C45.41 40.872 45.614 40.5 45.614 40.044C45.614 39.648 45.452 39.318 45.128 39.054C44.816 38.778 44.384 38.568 43.832 38.424L42.194 37.992C41.582 37.836 41.042 37.602 40.574 37.29C40.106 36.966 39.74 36.57 39.476 36.102C39.212 35.634 39.08 35.088 39.08 34.464C39.08 33.276 39.47 32.352 40.25 31.692C41.042 31.02 42.158 30.684 43.598 30.684C44.402 30.684 45.104 30.804 45.704 31.044C46.316 31.272 46.826 31.602 47.234 32.034C47.642 32.466 47.954 32.976 48.17 33.564L45.776 34.302C45.632 33.894 45.368 33.546 44.984 33.258C44.6 32.97 44.114 32.826 43.526 32.826C42.926 32.826 42.452 32.964 42.104 33.24C41.768 33.516 41.6 33.906 41.6 34.41C41.6 34.806 41.732 35.118 41.996 35.346C42.272 35.574 42.644 35.748 43.112 35.868L44.768 36.282C45.848 36.546 46.688 37.02 47.288 37.704C47.888 38.388 48.188 39.15 48.188 39.99C48.188 40.734 48.008 41.388 47.648 41.952C47.288 42.504 46.766 42.936 46.082 43.248C45.398 43.56 44.57 43.716 43.598 43.716ZM55.7556 43.5L55.6836 41.682V38.946C55.6836 38.406 55.6236 37.944 55.5036 37.56C55.3956 37.176 55.2156 36.882 54.9636 36.678C54.7236 36.462 54.3936 36.354 53.9736 36.354C53.5896 36.354 53.2416 36.438 52.9296 36.606C52.6176 36.774 52.3536 37.032 52.1376 37.38L50.0496 36.66C50.2176 36.276 50.4636 35.904 50.7876 35.544C51.1116 35.172 51.5316 34.872 52.0476 34.644C52.5756 34.404 53.2176 34.284 53.9736 34.284C54.8856 34.284 55.6416 34.458 56.2416 34.806C56.8536 35.154 57.3036 35.646 57.5916 36.282C57.8916 36.906 58.0356 37.65 58.0236 38.514L57.9696 43.5H55.7556ZM53.2356 43.716C52.1556 43.716 51.3156 43.476 50.7156 42.996C50.1276 42.516 49.8336 41.838 49.8336 40.962C49.8336 40.002 50.1516 39.282 50.7876 38.802C51.4356 38.31 52.3416 38.064 53.5056 38.064H55.7916V39.828H54.3336C53.5536 39.828 53.0136 39.924 52.7136 40.116C52.4136 40.296 52.2636 40.554 52.2636 40.89C52.2636 41.154 52.3836 41.364 52.6236 41.52C52.8636 41.664 53.1996 41.736 53.6316 41.736C54.0276 41.736 54.3756 41.646 54.6756 41.466C54.9876 41.274 55.2336 41.034 55.4136 40.746C55.5936 40.446 55.6836 40.14 55.6836 39.828H56.2596C56.2596 41.052 56.0256 42.006 55.5576 42.69C55.1016 43.374 54.3276 43.716 53.2356 43.716ZM63.0192 43.5L66.4392 34.5H68.8872L65.1972 43.5H63.0192ZM62.8212 43.5L59.1312 34.5H61.5792L64.9992 43.5H62.8212ZM70.5371 43.5V34.5H72.9131V43.5H70.5371ZM71.7251 33.042C71.3651 33.042 71.0471 32.91 70.7711 32.646C70.4951 32.37 70.3571 32.046 70.3571 31.674C70.3571 31.302 70.4951 30.984 70.7711 30.72C71.0471 30.444 71.3651 30.306 71.7251 30.306C72.0971 30.306 72.4151 30.444 72.6791 30.72C72.9551 30.984 73.0931 31.302 73.0931 31.674C73.0931 32.046 72.9551 32.37 72.6791 32.646C72.4151 32.91 72.0971 33.042 71.7251 33.042ZM75.464 43.5V34.5H77.696L77.84 36.156V43.5H75.464ZM81.422 43.5V38.892H83.798V43.5H81.422ZM81.422 38.892C81.422 38.28 81.35 37.806 81.206 37.47C81.074 37.134 80.882 36.894 80.63 36.75C80.378 36.594 80.084 36.516 79.748 36.516C79.136 36.504 78.662 36.69 78.326 37.074C78.002 37.458 77.84 38.028 77.84 38.784H77.048C77.048 37.824 77.186 37.014 77.462 36.354C77.75 35.682 78.146 35.172 78.65 34.824C79.166 34.464 79.766 34.284 80.45 34.284C81.158 34.284 81.764 34.428 82.268 34.716C82.772 35.004 83.156 35.454 83.42 36.066C83.684 36.666 83.81 37.446 83.798 38.406V38.892H81.422ZM90.1045 47.334C89.4205 47.334 88.8145 47.286 88.2865 47.19C87.7585 47.094 87.3145 46.968 86.9545 46.812C86.5945 46.656 86.3005 46.5 86.0725 46.344L87.0085 44.436C87.1765 44.532 87.3985 44.64 87.6745 44.76C87.9505 44.892 88.2805 45 88.6645 45.084C89.0485 45.18 89.4925 45.228 89.9965 45.228C90.4765 45.228 90.8965 45.132 91.2565 44.94C91.6285 44.76 91.9165 44.472 92.1205 44.076C92.3365 43.692 92.4445 43.2 92.4445 42.6V34.5H94.8205V42.528C94.8205 43.536 94.6285 44.4 94.2445 45.12C93.8605 45.852 93.3145 46.404 92.6065 46.776C91.9105 47.148 91.0765 47.334 90.1045 47.334ZM89.6365 43.248C88.8085 43.248 88.0885 43.068 87.4765 42.708C86.8765 42.348 86.4085 41.844 86.0725 41.196C85.7365 40.548 85.5685 39.78 85.5685 38.892C85.5685 37.956 85.7365 37.146 86.0725 36.462C86.4085 35.766 86.8765 35.232 87.4765 34.86C88.0885 34.476 88.8085 34.284 89.6365 34.284C90.3565 34.284 90.9805 34.476 91.5085 34.86C92.0365 35.232 92.4445 35.766 92.7325 36.462C93.0205 37.158 93.1645 37.986 93.1645 38.946C93.1645 39.81 93.0205 40.566 92.7325 41.214C92.4445 41.862 92.0365 42.366 91.5085 42.726C90.9805 43.074 90.3565 43.248 89.6365 43.248ZM90.3205 41.25C90.7285 41.25 91.0825 41.148 91.3825 40.944C91.6945 40.728 91.9345 40.44 92.1025 40.08C92.2705 39.708 92.3545 39.288 92.3545 38.82C92.3545 38.34 92.2645 37.92 92.0845 37.56C91.9165 37.2 91.6765 36.918 91.3645 36.714C91.0645 36.51 90.7105 36.408 90.3025 36.408C89.8825 36.408 89.5105 36.51 89.1865 36.714C88.8625 36.918 88.6105 37.2 88.4305 37.56C88.2505 37.92 88.1545 38.34 88.1425 38.82C88.1545 39.288 88.2505 39.708 88.4305 40.08C88.6105 40.44 88.8625 40.728 89.1865 40.944C89.5225 41.148 89.9005 41.25 90.3205 41.25ZM102.216 43.5V30.9H104.898L108.57 36.336L112.242 30.9H114.906V43.5H112.458V34.752L108.57 40.476L104.682 34.77V43.5H102.216ZM121.898 43.716C120.986 43.716 120.17 43.518 119.45 43.122C118.742 42.714 118.184 42.156 117.776 41.448C117.38 40.74 117.182 39.924 117.182 39C117.182 38.076 117.38 37.26 117.776 36.552C118.172 35.844 118.724 35.292 119.432 34.896C120.14 34.488 120.95 34.284 121.862 34.284C122.786 34.284 123.602 34.488 124.31 34.896C125.018 35.292 125.57 35.844 125.966 36.552C126.362 37.26 126.56 38.076 126.56 39C126.56 39.924 126.362 40.74 125.966 41.448C125.57 42.156 125.018 42.714 124.31 43.122C123.614 43.518 122.81 43.716 121.898 43.716ZM121.898 41.52C122.342 41.52 122.732 41.412 123.068 41.196C123.404 40.98 123.662 40.686 123.842 40.314C124.034 39.93 124.13 39.492 124.13 39C124.13 38.508 124.034 38.076 123.842 37.704C123.65 37.32 123.38 37.02 123.032 36.804C122.696 36.588 122.306 36.48 121.862 36.48C121.43 36.48 121.04 36.588 120.692 36.804C120.356 37.02 120.092 37.32 119.9 37.704C119.708 38.076 119.612 38.508 119.612 39C119.612 39.492 119.708 39.93 119.9 40.314C120.092 40.686 120.362 40.98 120.71 41.196C121.058 41.412 121.454 41.52 121.898 41.52ZM128.487 43.5V34.5H130.719L130.863 36.156V43.5H128.487ZM134.445 43.5V38.892H136.821V43.5H134.445ZM134.445 38.892C134.445 38.28 134.373 37.806 134.229 37.47C134.097 37.134 133.905 36.894 133.653 36.75C133.401 36.594 133.107 36.516 132.771 36.516C132.159 36.504 131.685 36.69 131.349 37.074C131.025 37.458 130.863 38.028 130.863 38.784H130.071C130.071 37.824 130.209 37.014 130.485 36.354C130.773 35.682 131.169 35.172 131.673 34.824C132.189 34.464 132.789 34.284 133.473 34.284C134.181 34.284 134.787 34.428 135.291 34.716C135.795 35.004 136.179 35.454 136.443 36.066C136.707 36.666 136.833 37.446 136.821 38.406V38.892H134.445ZM142.785 43.716C141.789 43.716 141.033 43.47 140.517 42.978C140.013 42.486 139.761 41.784 139.761 40.872V31.692H142.137V40.35C142.137 40.734 142.221 41.028 142.389 41.232C142.557 41.424 142.803 41.52 143.127 41.52C143.247 41.52 143.379 41.496 143.523 41.448C143.667 41.388 143.817 41.304 143.973 41.196L144.801 42.978C144.513 43.194 144.189 43.368 143.829 43.5C143.481 43.644 143.133 43.716 142.785 43.716ZM138.303 36.516V34.5H144.387V36.516H138.303ZM146.697 43.5V30.9H149.073V43.5H146.697ZM152.673 43.5V38.892H155.049V43.5H152.673ZM152.673 38.892C152.673 38.28 152.601 37.806 152.457 37.47C152.313 37.134 152.115 36.894 151.863 36.75C151.611 36.594 151.317 36.516 150.981 36.516C150.369 36.504 149.895 36.69 149.559 37.074C149.235 37.458 149.073 38.028 149.073 38.784H148.281C148.281 37.824 148.419 37.014 148.695 36.354C148.983 35.682 149.379 35.172 149.883 34.824C150.399 34.464 150.999 34.284 151.683 34.284C152.403 34.284 153.009 34.428 153.501 34.716C154.005 35.004 154.389 35.454 154.653 36.066C154.917 36.666 155.049 37.446 155.049 38.406V38.892H152.673Z" fill="#0E0E0E"/>
<path d="M44.816 78.924C43.792 78.924 42.864 78.764 42.032 78.444C41.2 78.124 40.512 77.692 39.968 77.148C39.44 76.604 39.104 76.02 38.96 75.396L41.888 74.532C42.064 75.012 42.384 75.428 42.848 75.78C43.328 76.116 43.928 76.292 44.648 76.308C45.4 76.324 46.008 76.164 46.472 75.828C46.952 75.492 47.192 75.044 47.192 74.484C47.192 74.036 47 73.652 46.616 73.332C46.248 72.996 45.736 72.748 45.08 72.588L43.112 72.108C42.376 71.9 41.728 71.604 41.168 71.22C40.608 70.836 40.176 70.364 39.872 69.804C39.568 69.228 39.416 68.564 39.416 67.812C39.416 66.388 39.88 65.276 40.808 64.476C41.752 63.676 43.088 63.276 44.816 63.276C45.776 63.276 46.616 63.412 47.336 63.684C48.072 63.956 48.688 64.356 49.184 64.884C49.68 65.396 50.056 66.012 50.312 66.732L47.384 67.62C47.224 67.156 46.912 66.756 46.448 66.42C46 66.068 45.424 65.892 44.72 65.892C44.032 65.892 43.488 66.06 43.088 66.396C42.688 66.716 42.488 67.164 42.488 67.74C42.488 68.204 42.64 68.58 42.944 68.868C43.264 69.14 43.696 69.34 44.24 69.468L46.232 69.972C47.528 70.292 48.528 70.868 49.232 71.7C49.952 72.516 50.312 73.428 50.312 74.436C50.312 75.348 50.096 76.14 49.664 76.812C49.232 77.484 48.608 78.004 47.792 78.372C46.976 78.74 45.984 78.924 44.816 78.924ZM43.544 81.972V77.796H46.184V81.972H43.544ZM43.544 64.956V60.78H46.184V64.956H43.544ZM62.6478 79.5V64.452L62.9598 62.7H65.7918V79.5H62.6478ZM59.0958 68.004V65.028C59.4958 65.06 59.9278 64.964 60.3918 64.74C60.8558 64.5 61.3118 64.196 61.7598 63.828C62.2238 63.444 62.6238 63.06 62.9598 62.676L65.0478 64.716C64.4718 65.356 63.8638 65.94 63.2238 66.468C62.5838 66.98 61.9198 67.38 61.2318 67.668C60.5598 67.956 59.8478 68.068 59.0958 68.004ZM75.8928 79.788C74.5488 79.788 73.4048 79.596 72.4608 79.212C71.5168 78.812 70.7968 78.268 70.3008 77.58C69.8208 76.876 69.5808 76.06 69.5808 75.132C69.5808 74.14 69.8208 73.268 70.3008 72.516C70.7968 71.764 71.5168 71.172 72.4608 70.74C73.4048 70.308 74.5488 70.1 75.8928 70.116C77.2528 70.1 78.4048 70.308 79.3488 70.74C80.2928 71.172 81.0128 71.764 81.5088 72.516C82.0048 73.268 82.2528 74.14 82.2528 75.132C82.2528 76.06 82.0048 76.876 81.5088 77.58C81.0128 78.268 80.2928 78.812 79.3488 79.212C78.4048 79.596 77.2528 79.788 75.8928 79.788ZM75.8928 77.052C76.7728 77.052 77.4928 76.836 78.0528 76.404C78.6128 75.956 78.8928 75.388 78.8928 74.7C78.8928 73.948 78.6128 73.34 78.0528 72.876C77.4928 72.412 76.7728 72.18 75.8928 72.18C75.3168 72.18 74.8048 72.284 74.3568 72.492C73.9248 72.7 73.5808 72.996 73.3248 73.38C73.0688 73.764 72.9408 74.204 72.9408 74.7C72.9408 75.164 73.0688 75.572 73.3248 75.924C73.5808 76.276 73.9248 76.556 74.3568 76.764C74.8048 76.956 75.3168 77.052 75.8928 77.052ZM75.8928 71.412C74.6928 71.412 73.6608 71.228 72.7968 70.86C71.9328 70.476 71.2688 69.956 70.8048 69.3C70.3568 68.628 70.1328 67.852 70.1328 66.972C70.1328 66.076 70.3568 65.284 70.8048 64.596C71.2688 63.908 71.9328 63.372 72.7968 62.988C73.6608 62.604 74.6928 62.412 75.8928 62.412C77.1088 62.412 78.1488 62.604 79.0128 62.988C79.8768 63.372 80.5408 63.908 81.0048 64.596C81.4688 65.284 81.7008 66.076 81.7008 66.972C81.7008 67.852 81.4688 68.628 81.0048 69.3C80.5408 69.956 79.8768 70.476 79.0128 70.86C78.1488 71.228 77.1088 71.412 75.8928 71.412ZM75.8928 69.564C76.6608 69.564 77.2848 69.356 77.7648 68.94C78.2608 68.524 78.5088 67.996 78.5088 67.356C78.5088 66.668 78.2608 66.116 77.7648 65.7C77.2848 65.268 76.6608 65.052 75.8928 65.052C75.1408 65.052 74.5248 65.268 74.0448 65.7C73.5648 66.116 73.3248 66.668 73.3248 67.356C73.3248 67.996 73.5648 68.524 74.0448 68.94C74.5248 69.356 75.1408 69.564 75.8928 69.564ZM90.7801 79.788C90.0121 79.788 89.2201 79.66 88.4041 79.404C87.6041 79.148 86.8761 78.764 86.2201 78.252C85.5801 77.74 85.1081 77.108 84.8041 76.356L87.8041 75.468C88.1561 75.98 88.5721 76.356 89.0521 76.596C89.5481 76.836 90.0601 76.956 90.5881 76.956C91.4201 76.956 92.0921 76.708 92.6041 76.212C93.1321 75.7 93.3961 75.02 93.3961 74.172C93.3961 73.388 93.1401 72.732 92.6281 72.204C92.1321 71.676 91.4681 71.412 90.6361 71.412C90.1401 71.412 89.6841 71.524 89.2681 71.748C88.8521 71.972 88.5321 72.236 88.3081 72.54L85.3561 71.892L86.3641 62.7H95.8681V65.676H89.1721L88.6921 69.708C89.1241 69.468 89.6041 69.276 90.1321 69.132C90.6601 68.972 91.2281 68.9 91.8361 68.916C92.7481 68.916 93.5801 69.14 94.3321 69.588C95.0841 70.02 95.6761 70.62 96.1081 71.388C96.5561 72.14 96.7801 73.02 96.7801 74.028C96.7801 75.164 96.5241 76.164 96.0121 77.028C95.5001 77.892 94.7961 78.572 93.9001 79.068C93.0041 79.548 91.9641 79.788 90.7801 79.788ZM99.3974 79.5V77.076C99.3974 76.612 99.5414 76.1 99.8294 75.54C100.117 74.98 100.517 74.42 101.029 73.86C101.541 73.3 102.141 72.78 102.829 72.3L105.373 70.476C105.725 70.236 106.053 69.964 106.357 69.66C106.677 69.356 106.933 69.028 107.125 68.676C107.333 68.308 107.437 67.956 107.437 67.62C107.437 67.204 107.333 66.828 107.125 66.492C106.933 66.156 106.645 65.892 106.261 65.7C105.877 65.508 105.405 65.412 104.845 65.412C104.365 65.412 103.933 65.508 103.549 65.7C103.181 65.892 102.877 66.148 102.637 66.468C102.397 66.788 102.229 67.132 102.133 67.5L98.7494 66.924C98.9094 66.124 99.2534 65.38 99.7814 64.692C100.309 64.004 100.997 63.452 101.845 63.036C102.709 62.604 103.685 62.388 104.773 62.388C106.021 62.388 107.093 62.612 107.989 63.06C108.885 63.508 109.573 64.124 110.053 64.908C110.549 65.676 110.797 66.572 110.797 67.596C110.797 68.636 110.509 69.564 109.933 70.38C109.373 71.18 108.597 71.932 107.605 72.636L105.325 74.292C104.861 74.612 104.461 74.964 104.125 75.348C103.789 75.732 103.533 76.156 103.357 76.62H111.013V79.5H99.3974ZM113.248 82.236L114.712 76.572H118L115.648 82.236H113.248ZM126.972 79.788C125.612 79.788 124.412 79.42 123.372 78.684C122.332 77.932 121.516 76.908 120.924 75.612C120.332 74.3 120.036 72.796 120.036 71.1C120.036 69.404 120.332 67.908 120.924 66.612C121.516 65.3 122.324 64.276 123.348 63.54C124.388 62.788 125.588 62.412 126.948 62.412C128.308 62.412 129.508 62.788 130.548 63.54C131.604 64.276 132.428 65.3 133.02 66.612C133.612 67.908 133.908 69.404 133.908 71.1C133.908 72.796 133.612 74.3 133.02 75.612C132.428 76.908 131.612 77.932 130.572 78.684C129.532 79.42 128.332 79.788 126.972 79.788ZM126.972 76.812C127.692 76.812 128.332 76.572 128.892 76.092C129.468 75.596 129.916 74.924 130.236 74.076C130.556 73.212 130.716 72.22 130.716 71.1C130.716 69.98 130.556 68.988 130.236 68.124C129.916 67.26 129.468 66.588 128.892 66.108C128.332 65.612 127.684 65.364 126.948 65.364C126.228 65.364 125.588 65.612 125.028 66.108C124.468 66.588 124.028 67.26 123.708 68.124C123.404 68.988 123.252 69.98 123.252 71.1C123.252 72.22 123.404 73.212 123.708 74.076C124.028 74.924 124.468 75.596 125.028 76.092C125.604 76.572 126.252 76.812 126.972 76.812ZM143.014 79.788C141.654 79.788 140.454 79.42 139.414 78.684C138.374 77.932 137.558 76.908 136.966 75.612C136.374 74.3 136.078 72.796 136.078 71.1C136.078 69.404 136.374 67.908 136.966 66.612C137.558 65.3 138.366 64.276 139.39 63.54C140.43 62.788 141.63 62.412 142.99 62.412C144.35 62.412 145.55 62.788 146.59 63.54C147.646 64.276 148.47 65.3 149.062 66.612C149.654 67.908 149.95 69.404 149.95 71.1C149.95 72.796 149.654 74.3 149.062 75.612C148.47 76.908 147.654 77.932 146.614 78.684C145.574 79.42 144.374 79.788 143.014 79.788ZM143.014 76.812C143.734 76.812 144.374 76.572 144.934 76.092C145.51 75.596 145.958 74.924 146.278 74.076C146.598 73.212 146.758 72.22 146.758 71.1C146.758 69.98 146.598 68.988 146.278 68.124C145.958 67.26 145.51 66.588 144.934 66.108C144.374 65.612 143.726 65.364 142.99 65.364C142.27 65.364 141.63 65.612 141.07 66.108C140.51 66.588 140.07 67.26 139.75 68.124C139.446 68.988 139.294 69.98 139.294 71.1C139.294 72.22 139.446 73.212 139.75 74.076C140.07 74.924 140.51 75.596 141.07 76.092C141.646 76.572 142.294 76.812 143.014 76.812Z" fill="#212121"/>
<path d="M32.8249 105.5V94.3H34.6809V105.5H32.8249ZM37.3245 105.5V97.5H39.0045L39.1165 98.972V105.5H37.3245ZM42.7485 105.5V101.404H44.5405V105.5H42.7485ZM42.7485 101.404C42.7485 100.764 42.6738 100.273 42.5245 99.932C42.3858 99.58 42.1832 99.3347 41.9165 99.196C41.6605 99.0573 41.3565 98.988 41.0045 98.988C40.4072 98.9773 39.9432 99.1747 39.6125 99.58C39.2818 99.9853 39.1165 100.567 39.1165 101.324H38.4445C38.4445 100.481 38.5672 99.7613 38.8125 99.164C39.0578 98.556 39.4098 98.0973 39.8685 97.788C40.3272 97.468 40.8712 97.308 41.5005 97.308C42.1405 97.308 42.6845 97.436 43.1325 97.692C43.5912 97.948 43.9378 98.348 44.1725 98.892C44.4178 99.4253 44.5405 100.124 44.5405 100.988V101.404H42.7485ZM50.4197 105.692C49.5984 105.692 48.8731 105.516 48.2437 105.164C47.6144 104.801 47.1184 104.305 46.7557 103.676C46.4037 103.047 46.2277 102.321 46.2277 101.5C46.2277 100.679 46.4037 99.9533 46.7557 99.324C47.1184 98.6947 47.6091 98.204 48.2277 97.852C48.8571 97.4893 49.5771 97.308 50.3877 97.308C51.1771 97.308 51.8917 97.5 52.5317 97.884C53.1717 98.2573 53.6464 98.796 53.9557 99.5L52.2917 100.14C52.1211 99.788 51.8597 99.5053 51.5077 99.292C51.1557 99.0787 50.7557 98.972 50.3077 98.972C49.8704 98.972 49.4811 99.084 49.1397 99.308C48.7984 99.5213 48.5317 99.82 48.3397 100.204C48.1477 100.577 48.0517 101.009 48.0517 101.5C48.0517 101.991 48.1477 102.428 48.3397 102.812C48.5424 103.185 48.8144 103.484 49.1557 103.708C49.5077 103.921 49.9024 104.028 50.3397 104.028C50.7877 104.028 51.1877 103.916 51.5397 103.692C51.8917 103.457 52.1531 103.143 52.3237 102.748L53.9877 103.388C53.6784 104.113 53.2037 104.679 52.5637 105.084C51.9344 105.489 51.2197 105.692 50.4197 105.692ZM56.8829 101.244C56.8829 100.38 57.0482 99.6707 57.3789 99.116C57.7095 98.5613 58.1362 98.1507 58.6589 97.884C59.1922 97.6067 59.7469 97.468 60.3229 97.468V99.18C59.8322 99.18 59.3682 99.2493 58.9309 99.388C58.5042 99.516 58.1575 99.7293 57.8909 100.028C57.6242 100.327 57.4909 100.721 57.4909 101.212L56.8829 101.244ZM55.6989 105.5V97.5H57.4909V105.5H55.6989ZM65.3994 105.692C64.6207 105.692 63.9274 105.516 63.3194 105.164C62.722 104.801 62.2474 104.305 61.8954 103.676C61.554 103.047 61.3834 102.321 61.3834 101.5C61.3834 100.679 61.5594 99.9533 61.9114 99.324C62.2634 98.6947 62.7434 98.204 63.3514 97.852C63.97 97.4893 64.674 97.308 65.4634 97.308C66.178 97.308 66.8234 97.4947 67.3994 97.868C67.9754 98.2307 68.4287 98.7587 68.7594 99.452C69.1007 100.145 69.2714 100.972 69.2714 101.932H62.9834L63.2234 101.708C63.2234 102.199 63.33 102.625 63.5434 102.988C63.7567 103.34 64.0394 103.612 64.3914 103.804C64.7434 103.996 65.1327 104.092 65.5594 104.092C66.05 104.092 66.4554 103.985 66.7754 103.772C67.0954 103.548 67.346 103.26 67.5274 102.908L69.1114 103.58C68.8874 104.007 68.5994 104.38 68.2474 104.7C67.906 105.02 67.4954 105.265 67.0154 105.436C66.546 105.607 66.0074 105.692 65.3994 105.692ZM63.3354 100.78L63.0794 100.556H67.5914L67.3514 100.78C67.3514 100.343 67.2554 99.9853 67.0634 99.708C66.8714 99.42 66.626 99.2067 66.3274 99.068C66.0394 98.9187 65.7354 98.844 65.4154 98.844C65.0954 98.844 64.7754 98.9187 64.4554 99.068C64.1354 99.2067 63.8687 99.42 63.6554 99.708C63.442 99.9853 63.3354 100.343 63.3354 100.78ZM75.8439 105.5L75.7639 103.996V101.388C75.7639 100.844 75.7052 100.391 75.5879 100.028C75.4812 99.6547 75.2999 99.372 75.0439 99.18C74.7985 98.9773 74.4679 98.876 74.0519 98.876C73.6679 98.876 73.3319 98.956 73.0439 99.116C72.7559 99.276 72.5105 99.5267 72.3079 99.868L70.7399 99.292C70.9105 98.94 71.1345 98.6147 71.4119 98.316C71.6999 98.0067 72.0572 97.7613 72.4839 97.58C72.9212 97.3987 73.4439 97.308 74.0519 97.308C74.8305 97.308 75.4812 97.4627 76.0039 97.772C76.5265 98.0707 76.9105 98.5027 77.1559 99.068C77.4119 99.6333 77.5399 100.316 77.5399 101.116L77.4919 105.5H75.8439ZM73.5399 105.692C72.5799 105.692 71.8332 105.479 71.2999 105.052C70.7772 104.625 70.5159 104.023 70.5159 103.244C70.5159 102.412 70.7932 101.777 71.3479 101.34C71.9132 100.903 72.6972 100.684 73.6999 100.684H75.8439V102.06H74.2759C73.5612 102.06 73.0599 102.161 72.7719 102.364C72.4839 102.556 72.3399 102.833 72.3399 103.196C72.3399 103.505 72.4625 103.751 72.7079 103.932C72.9639 104.103 73.3159 104.188 73.7639 104.188C74.1692 104.188 74.5212 104.097 74.8199 103.916C75.1185 103.735 75.3479 103.495 75.5079 103.196C75.6785 102.897 75.7639 102.561 75.7639 102.188H76.2919C76.2919 103.276 76.0732 104.135 75.6359 104.764C75.1985 105.383 74.4999 105.692 73.5399 105.692ZM82.5865 105.692C82.0532 105.692 81.5625 105.612 81.1145 105.452C80.6665 105.292 80.2825 105.068 79.9625 104.78C79.6425 104.481 79.3972 104.135 79.2265 103.74L80.7785 103.052C80.9385 103.351 81.1732 103.601 81.4825 103.804C81.8025 104.007 82.1545 104.108 82.5385 104.108C82.9545 104.108 83.2852 104.039 83.5305 103.9C83.7865 103.751 83.9145 103.548 83.9145 103.292C83.9145 103.047 83.8185 102.86 83.6265 102.732C83.4345 102.593 83.1625 102.481 82.8105 102.396L82.0585 102.188C81.3012 101.996 80.7092 101.692 80.2825 101.276C79.8558 100.849 79.6425 100.364 79.6425 99.82C79.6425 99.02 79.8985 98.4013 80.4105 97.964C80.9332 97.5267 81.6798 97.308 82.6505 97.308C83.1412 97.308 83.5892 97.3827 83.9945 97.532C84.4105 97.6707 84.7678 97.8733 85.0665 98.14C85.3652 98.396 85.5732 98.7 85.6905 99.052L84.2025 99.724C84.0958 99.4573 83.8932 99.2547 83.5945 99.116C83.2958 98.9667 82.9652 98.892 82.6025 98.892C82.2398 98.892 81.9572 98.972 81.7545 99.132C81.5518 99.2813 81.4505 99.4947 81.4505 99.772C81.4505 99.932 81.5412 100.081 81.7225 100.22C81.9038 100.348 82.1652 100.455 82.5065 100.54L83.4505 100.764C83.9732 100.892 84.3998 101.095 84.7305 101.372C85.0612 101.639 85.3065 101.943 85.4665 102.284C85.6265 102.615 85.7065 102.951 85.7065 103.292C85.7065 103.772 85.5678 104.193 85.2905 104.556C85.0238 104.919 84.6558 105.201 84.1865 105.404C83.7172 105.596 83.1838 105.692 82.5865 105.692ZM91.0156 105.692C90.237 105.692 89.5436 105.516 88.9356 105.164C88.3383 104.801 87.8636 104.305 87.5116 103.676C87.1703 103.047 86.9996 102.321 86.9996 101.5C86.9996 100.679 87.1756 99.9533 87.5276 99.324C87.8796 98.6947 88.3596 98.204 88.9676 97.852C89.5863 97.4893 90.2903 97.308 91.0796 97.308C91.7943 97.308 92.4396 97.4947 93.0156 97.868C93.5916 98.2307 94.045 98.7587 94.3756 99.452C94.717 100.145 94.8876 100.972 94.8876 101.932H88.5996L88.8396 101.708C88.8396 102.199 88.9463 102.625 89.1596 102.988C89.373 103.34 89.6556 103.612 90.0076 103.804C90.3596 103.996 90.749 104.092 91.1756 104.092C91.6663 104.092 92.0716 103.985 92.3916 103.772C92.7116 103.548 92.9623 103.26 93.1436 102.908L94.7276 103.58C94.5036 104.007 94.2156 104.38 93.8636 104.7C93.5223 105.02 93.1116 105.265 92.6316 105.436C92.1623 105.607 91.6236 105.692 91.0156 105.692ZM88.9516 100.78L88.6956 100.556H93.2076L92.9676 100.78C92.9676 100.343 92.8716 99.9853 92.6796 99.708C92.4876 99.42 92.2423 99.2067 91.9436 99.068C91.6556 98.9187 91.3516 98.844 91.0316 98.844C90.7116 98.844 90.3916 98.9187 90.0716 99.068C89.7516 99.2067 89.485 99.42 89.2716 99.708C89.0583 99.9853 88.9516 100.343 88.9516 100.78ZM104.439 105.692C103.639 105.692 102.925 105.516 102.295 105.164C101.677 104.801 101.191 104.305 100.839 103.676C100.487 103.047 100.311 102.321 100.311 101.5C100.311 100.679 100.482 99.9533 100.823 99.324C101.175 98.6947 101.661 98.204 102.279 97.852C102.898 97.4893 103.607 97.308 104.407 97.308C105.207 97.308 105.917 97.4893 106.535 97.852C107.154 98.204 107.634 98.6947 107.975 99.324C108.327 99.9533 108.503 100.679 108.503 101.5C108.503 102.321 108.333 103.047 107.991 103.676C107.65 104.305 107.17 104.801 106.551 105.164C105.933 105.516 105.229 105.692 104.439 105.692ZM104.439 104.044C104.877 104.044 105.266 103.937 105.607 103.724C105.949 103.5 106.215 103.201 106.407 102.828C106.599 102.444 106.695 102.001 106.695 101.5C106.695 100.999 106.594 100.561 106.391 100.188C106.199 99.804 105.933 99.5053 105.591 99.292C105.25 99.068 104.855 98.956 104.407 98.956C103.959 98.956 103.565 99.0627 103.223 99.276C102.882 99.4893 102.615 99.788 102.423 100.172C102.231 100.556 102.135 100.999 102.135 101.5C102.135 102.001 102.231 102.444 102.423 102.828C102.626 103.201 102.898 103.5 103.239 103.724C103.591 103.937 103.991 104.044 104.439 104.044ZM111.176 105.5V96.652C111.176 95.8093 111.384 95.164 111.8 94.716C112.227 94.2573 112.867 94.028 113.72 94.028C113.998 94.028 114.291 94.076 114.6 94.172C114.92 94.2573 115.224 94.3747 115.512 94.524L114.856 95.852C114.654 95.756 114.472 95.6867 114.312 95.644C114.163 95.6013 114.03 95.58 113.912 95.58C113.592 95.58 113.352 95.6867 113.192 95.9C113.043 96.1027 112.968 96.4387 112.968 96.908V105.5H111.176ZM109.8 98.972V97.5H115.064V98.972H109.8ZM155.628 105.5V96.652C155.628 95.8093 155.836 95.164 156.252 94.716C156.678 94.2573 157.318 94.028 158.172 94.028C158.449 94.028 158.742 94.076 159.052 94.172C159.372 94.2573 159.676 94.3747 159.964 94.524L159.308 95.852C159.105 95.756 158.924 95.6867 158.764 95.644C158.614 95.6013 158.481 95.58 158.364 95.58C158.044 95.58 157.804 95.6867 157.644 95.9C157.494 96.1027 157.42 96.4387 157.42 96.908V105.5H155.628ZM154.252 98.972V97.5H159.516V98.972H154.252ZM162.472 101.244C162.472 100.38 162.638 99.6707 162.968 99.116C163.299 98.5613 163.726 98.1507 164.248 97.884C164.782 97.6067 165.336 97.468 165.912 97.468V99.18C165.422 99.18 164.958 99.2493 164.52 99.388C164.094 99.516 163.747 99.7293 163.48 100.028C163.214 100.327 163.08 100.721 163.08 101.212L162.472 101.244ZM161.288 105.5V97.5H163.08V105.5H161.288ZM171.101 105.692C170.301 105.692 169.586 105.516 168.957 105.164C168.338 104.801 167.853 104.305 167.501 103.676C167.149 103.047 166.973 102.321 166.973 101.5C166.973 100.679 167.143 99.9533 167.485 99.324C167.837 98.6947 168.322 98.204 168.941 97.852C169.559 97.4893 170.269 97.308 171.069 97.308C171.869 97.308 172.578 97.4893 173.197 97.852C173.815 98.204 174.295 98.6947 174.637 99.324C174.989 99.9533 175.165 100.679 175.165 101.5C175.165 102.321 174.994 103.047 174.653 103.676C174.311 104.305 173.831 104.801 173.213 105.164C172.594 105.516 171.89 105.692 171.101 105.692ZM171.101 104.044C171.538 104.044 171.927 103.937 172.269 103.724C172.61 103.5 172.877 103.201 173.069 102.828C173.261 102.444 173.357 102.001 173.357 101.5C173.357 100.999 173.255 100.561 173.053 100.188C172.861 99.804 172.594 99.5053 172.253 99.292C171.911 99.068 171.517 98.956 171.069 98.956C170.621 98.956 170.226 99.0627 169.885 99.276C169.543 99.4893 169.277 99.788 169.085 100.172C168.893 100.556 168.797 100.999 168.797 101.5C168.797 102.001 168.893 102.444 169.085 102.828C169.287 103.201 169.559 103.5 169.901 103.724C170.253 103.937 170.653 104.044 171.101 104.044ZM177.038 105.5V97.5H178.718L178.798 98.572C179.043 98.156 179.358 97.8413 179.742 97.628C180.126 97.4147 180.563 97.308 181.054 97.308C181.694 97.308 182.238 97.452 182.686 97.74C183.134 98.028 183.459 98.4653 183.662 99.052C183.896 98.4867 184.227 98.0547 184.654 97.756C185.08 97.4573 185.582 97.308 186.158 97.308C187.086 97.308 187.8 97.6067 188.302 98.204C188.803 98.7907 189.048 99.6973 189.038 100.924V105.5H187.262V101.404C187.262 100.764 187.192 100.273 187.054 99.932C186.915 99.58 186.728 99.3347 186.494 99.196C186.259 99.0573 185.987 98.988 185.678 98.988C185.123 98.9773 184.691 99.1747 184.382 99.58C184.083 99.9853 183.934 100.567 183.934 101.324V105.5H182.142V101.404C182.142 100.764 182.072 100.273 181.934 99.932C181.806 99.58 181.624 99.3347 181.39 99.196C181.155 99.0573 180.883 98.988 180.574 98.988C180.019 98.9773 179.587 99.1747 179.278 99.58C178.979 99.9853 178.83 100.567 178.83 101.324V105.5H177.038ZM195.365 105.5V94.3H197.157V105.5H195.365ZM204.346 105.5L204.266 103.996V101.388C204.266 100.844 204.208 100.391 204.09 100.028C203.984 99.6547 203.802 99.372 203.546 99.18C203.301 98.9773 202.97 98.876 202.554 98.876C202.17 98.876 201.834 98.956 201.546 99.116C201.258 99.276 201.013 99.5267 200.81 99.868L199.242 99.292C199.413 98.94 199.637 98.6147 199.914 98.316C200.202 98.0067 200.56 97.7613 200.986 97.58C201.424 97.3987 201.946 97.308 202.554 97.308C203.333 97.308 203.984 97.4627 204.506 97.772C205.029 98.0707 205.413 98.5027 205.658 99.068C205.914 99.6333 206.042 100.316 206.042 101.116L205.994 105.5H204.346ZM202.042 105.692C201.082 105.692 200.336 105.479 199.802 105.052C199.28 104.625 199.018 104.023 199.018 103.244C199.018 102.412 199.296 101.777 199.85 101.34C200.416 100.903 201.2 100.684 202.202 100.684H204.346V102.06H202.778C202.064 102.06 201.562 102.161 201.274 102.364C200.986 102.556 200.842 102.833 200.842 103.196C200.842 103.505 200.965 103.751 201.21 103.932C201.466 104.103 201.818 104.188 202.266 104.188C202.672 104.188 203.024 104.097 203.322 103.916C203.621 103.735 203.85 103.495 204.01 103.196C204.181 102.897 204.266 102.561 204.266 102.188H204.794C204.794 103.276 204.576 104.135 204.138 104.764C203.701 105.383 203.002 105.692 202.042 105.692ZM211.089 105.692C210.556 105.692 210.065 105.612 209.617 105.452C209.169 105.292 208.785 105.068 208.465 104.78C208.145 104.481 207.9 104.135 207.729 103.74L209.281 103.052C209.441 103.351 209.676 103.601 209.985 103.804C210.305 104.007 210.657 104.108 211.041 104.108C211.457 104.108 211.788 104.039 212.033 103.9C212.289 103.751 212.417 103.548 212.417 103.292C212.417 103.047 212.321 102.86 212.129 102.732C211.937 102.593 211.665 102.481 211.313 102.396L210.561 102.188C209.804 101.996 209.212 101.692 208.785 101.276C208.358 100.849 208.145 100.364 208.145 99.82C208.145 99.02 208.401 98.4013 208.913 97.964C209.436 97.5267 210.182 97.308 211.153 97.308C211.644 97.308 212.092 97.3827 212.497 97.532C212.913 97.6707 213.27 97.8733 213.569 98.14C213.868 98.396 214.076 98.7 214.193 99.052L212.705 99.724C212.598 99.4573 212.396 99.2547 212.097 99.116C211.798 98.9667 211.468 98.892 211.105 98.892C210.742 98.892 210.46 98.972 210.257 99.132C210.054 99.2813 209.953 99.4947 209.953 99.772C209.953 99.932 210.044 100.081 210.225 100.22C210.406 100.348 210.668 100.455 211.009 100.54L211.953 100.764C212.476 100.892 212.902 101.095 213.233 101.372C213.564 101.639 213.809 101.943 213.969 102.284C214.129 102.615 214.209 102.951 214.209 103.292C214.209 103.772 214.07 104.193 213.793 104.556C213.526 104.919 213.158 105.201 212.689 105.404C212.22 105.596 211.686 105.692 211.089 105.692ZM219.134 105.692C218.291 105.692 217.646 105.484 217.198 105.068C216.761 104.641 216.542 104.033 216.542 103.244V95.004H218.318V102.908C218.318 103.281 218.403 103.564 218.574 103.756C218.755 103.948 219.017 104.044 219.358 104.044C219.465 104.044 219.582 104.023 219.71 103.98C219.838 103.937 219.982 103.857 220.142 103.74L220.798 105.1C220.521 105.292 220.243 105.436 219.966 105.532C219.689 105.639 219.411 105.692 219.134 105.692ZM215.214 99.036V97.5H220.478V99.036H215.214ZM226.731 105.5V97.5H228.411L228.491 98.572C228.736 98.156 229.051 97.8413 229.435 97.628C229.819 97.4147 230.256 97.308 230.747 97.308C231.387 97.308 231.931 97.452 232.379 97.74C232.827 98.028 233.152 98.4653 233.355 99.052C233.589 98.4867 233.92 98.0547 234.347 97.756C234.773 97.4573 235.275 97.308 235.851 97.308C236.779 97.308 237.493 97.6067 237.995 98.204C238.496 98.7907 238.741 99.6973 238.731 100.924V105.5H236.955V101.404C236.955 100.764 236.885 100.273 236.747 99.932C236.608 99.58 236.421 99.3347 236.187 99.196C235.952 99.0573 235.68 98.988 235.371 98.988C234.816 98.9773 234.384 99.1747 234.075 99.58C233.776 99.9853 233.627 100.567 233.627 101.324V105.5H231.835V101.404C231.835 100.764 231.765 100.273 231.627 99.932C231.499 99.58 231.317 99.3347 231.083 99.196C230.848 99.0573 230.576 98.988 230.267 98.988C229.712 98.9773 229.28 99.1747 228.971 99.58C228.672 99.9853 228.523 100.567 228.523 101.324V105.5H226.731ZM244.559 105.692C243.759 105.692 243.044 105.516 242.415 105.164C241.796 104.801 241.311 104.305 240.959 103.676C240.607 103.047 240.431 102.321 240.431 101.5C240.431 100.679 240.602 99.9533 240.943 99.324C241.295 98.6947 241.78 98.204 242.399 97.852C243.018 97.4893 243.727 97.308 244.527 97.308C245.327 97.308 246.036 97.4893 246.655 97.852C247.274 98.204 247.754 98.6947 248.095 99.324C248.447 99.9533 248.623 100.679 248.623 101.5C248.623 102.321 248.452 103.047 248.111 103.676C247.77 104.305 247.29 104.801 246.671 105.164C246.052 105.516 245.348 105.692 244.559 105.692ZM244.559 104.044C244.996 104.044 245.386 103.937 245.727 103.724C246.068 103.5 246.335 103.201 246.527 102.828C246.719 102.444 246.815 102.001 246.815 101.5C246.815 100.999 246.714 100.561 246.511 100.188C246.319 99.804 246.052 99.5053 245.711 99.292C245.37 99.068 244.975 98.956 244.527 98.956C244.079 98.956 243.684 99.0627 243.343 99.276C243.002 99.4893 242.735 99.788 242.543 100.172C242.351 100.556 242.255 100.999 242.255 101.5C242.255 102.001 242.351 102.444 242.543 102.828C242.746 103.201 243.018 103.5 243.359 103.724C243.711 103.937 244.111 104.044 244.559 104.044ZM250.496 105.5V97.5H252.176L252.288 98.972V105.5H250.496ZM255.92 105.5V101.404H257.712V105.5H255.92ZM255.92 101.404C255.92 100.764 255.845 100.273 255.696 99.932C255.557 99.58 255.354 99.3347 255.088 99.196C254.832 99.0573 254.528 98.988 254.176 98.988C253.578 98.9773 253.114 99.1747 252.784 99.58C252.453 99.9853 252.288 100.567 252.288 101.324H251.616C251.616 100.481 251.738 99.7613 251.984 99.164C252.229 98.556 252.581 98.0973 253.04 97.788C253.498 97.468 254.042 97.308 254.672 97.308C255.312 97.308 255.856 97.436 256.304 97.692C256.762 97.948 257.109 98.348 257.344 98.892C257.589 99.4253 257.712 100.124 257.712 100.988V101.404H255.92ZM263.031 105.692C262.188 105.692 261.543 105.484 261.095 105.068C260.658 104.641 260.439 104.033 260.439 103.244V95.004H262.215V102.908C262.215 103.281 262.3 103.564 262.471 103.756C262.652 103.948 262.914 104.044 263.255 104.044C263.362 104.044 263.479 104.023 263.607 103.98C263.735 103.937 263.879 103.857 264.039 103.74L264.695 105.1C264.418 105.292 264.14 105.436 263.863 105.532C263.586 105.639 263.308 105.692 263.031 105.692ZM259.111 99.036V97.5H264.375V99.036H259.111ZM266.464 105.5V94.3H268.256V105.5H266.464ZM271.888 105.5V101.404H273.68V105.5H271.888ZM271.888 101.404C271.888 100.764 271.814 100.273 271.664 99.932C271.515 99.58 271.307 99.3347 271.04 99.196C270.784 99.0573 270.486 98.988 270.144 98.988C269.536 98.9773 269.067 99.1747 268.736 99.58C268.416 99.9853 268.256 100.567 268.256 101.324H267.568C267.568 100.481 267.691 99.7613 267.936 99.164C268.192 98.556 268.55 98.0973 269.008 97.788C269.467 97.468 270.011 97.308 270.64 97.308C271.27 97.308 271.814 97.436 272.272 97.692C272.731 97.948 273.078 98.348 273.312 98.892C273.558 99.4253 273.68 100.124 273.68 100.988V101.404H271.888Z" fill="#414141"/>
<path d="M123.288 105.5V95.292L123.464 94.3H125.08V105.5H123.288ZM120.856 97.58V95.9C121.102 95.9107 121.379 95.8413 121.688 95.692C122.008 95.532 122.323 95.324 122.632 95.068C122.942 94.812 123.219 94.5507 123.464 94.284L124.616 95.484C124.243 95.8787 123.854 96.2413 123.448 96.572C123.043 96.9027 122.622 97.1587 122.184 97.34C121.758 97.5213 121.315 97.6013 120.856 97.58ZM127.912 105.5V104.076C127.912 103.745 127.997 103.404 128.168 103.052C128.338 102.689 128.578 102.327 128.888 101.964C129.208 101.601 129.581 101.26 130.008 100.94L131.96 99.532C132.205 99.3613 132.429 99.164 132.632 98.94C132.845 98.716 133.016 98.4813 133.144 98.236C133.272 97.98 133.336 97.7293 133.336 97.484C133.336 97.1747 133.256 96.892 133.096 96.636C132.946 96.38 132.728 96.1773 132.44 96.028C132.162 95.8787 131.821 95.804 131.416 95.804C131.053 95.804 130.728 95.8787 130.44 96.028C130.162 96.1667 129.933 96.3533 129.752 96.588C129.57 96.8227 129.442 97.0787 129.368 97.356L127.464 97.004C127.57 96.492 127.794 96.0173 128.136 95.58C128.488 95.132 128.936 94.7747 129.48 94.508C130.034 94.2413 130.664 94.108 131.368 94.108C132.157 94.108 132.84 94.252 133.416 94.54C134.002 94.828 134.45 95.228 134.76 95.74C135.08 96.2413 135.24 96.8173 135.24 97.468C135.24 98.1293 135.058 98.7267 134.696 99.26C134.344 99.7827 133.848 100.284 133.208 100.764L131.416 102.092C131.064 102.348 130.776 102.625 130.552 102.924C130.328 103.212 130.173 103.521 130.088 103.852H135.384V105.5H127.912ZM137.996 105.5L145.948 94.3H147.804L139.804 105.5H137.996ZM146.092 105.756C145.591 105.756 145.148 105.639 144.764 105.404C144.38 105.169 144.076 104.844 143.852 104.428C143.639 104.012 143.532 103.543 143.532 103.02C143.532 102.487 143.639 102.017 143.852 101.612C144.065 101.207 144.364 100.887 144.748 100.652C145.143 100.417 145.591 100.3 146.092 100.3C146.593 100.3 147.036 100.417 147.42 100.652C147.804 100.887 148.103 101.207 148.316 101.612C148.54 102.017 148.652 102.487 148.652 103.02C148.652 103.543 148.54 104.012 148.316 104.428C148.103 104.844 147.804 105.169 147.42 105.404C147.036 105.639 146.593 105.756 146.092 105.756ZM146.092 104.492C146.444 104.492 146.732 104.353 146.956 104.076C147.18 103.799 147.292 103.447 147.292 103.02C147.292 102.604 147.18 102.257 146.956 101.98C146.732 101.692 146.444 101.548 146.092 101.548C145.74 101.548 145.447 101.692 145.212 101.98C144.988 102.257 144.876 102.604 144.876 103.02C144.876 103.447 144.988 103.799 145.212 104.076C145.447 104.353 145.74 104.492 146.092 104.492ZM139.756 99.5C139.265 99.5 138.823 99.3827 138.428 99.148C138.044 98.9133 137.745 98.588 137.532 98.172C137.319 97.756 137.212 97.2867 137.212 96.764C137.212 96.2307 137.319 95.7613 137.532 95.356C137.745 94.9507 138.044 94.6307 138.428 94.396C138.823 94.1613 139.271 94.044 139.772 94.044C140.273 94.044 140.716 94.1613 141.1 94.396C141.484 94.6307 141.783 94.9507 141.996 95.356C142.209 95.7613 142.316 96.2307 142.316 96.764C142.316 97.2867 142.209 97.756 141.996 98.172C141.783 98.588 141.479 98.9133 141.084 99.148C140.7 99.3827 140.257 99.5 139.756 99.5ZM139.756 98.236C140.119 98.236 140.412 98.0973 140.636 97.82C140.86 97.5427 140.972 97.1907 140.972 96.764C140.972 96.348 140.86 96.0013 140.636 95.724C140.412 95.4467 140.119 95.308 139.756 95.308C139.404 95.308 139.116 95.4467 138.892 95.724C138.668 96.0013 138.556 96.348 138.556 96.764C138.556 97.1907 138.668 97.5427 138.892 97.82C139.116 98.0973 139.404 98.236 139.756 98.236Z" fill="#212121"/>
<path d="M60.5113 326.24C59.7646 326.24 59.1019 326.025 58.5233 325.596C57.9446 325.157 57.4919 324.56 57.1653 323.804C56.8386 323.039 56.6753 322.161 56.6753 321.172C56.6753 320.183 56.8386 319.31 57.1653 318.554C57.4919 317.789 57.9399 317.191 58.5093 316.762C59.0879 316.323 59.7553 316.104 60.5113 316.104C61.2673 316.104 61.9299 316.323 62.4993 316.762C63.0779 317.191 63.5306 317.789 63.8573 318.554C64.1933 319.31 64.3613 320.183 64.3613 321.172C64.3613 322.161 64.1979 323.039 63.8713 323.804C63.5446 324.56 63.0919 325.157 62.5133 325.596C61.9346 326.025 61.2673 326.24 60.5113 326.24ZM60.5113 325.176C61.0339 325.176 61.4959 325.003 61.8973 324.658C62.3079 324.313 62.6253 323.841 62.8493 323.244C63.0826 322.647 63.1993 321.956 63.1993 321.172C63.1993 320.388 63.0826 319.697 62.8493 319.1C62.6253 318.493 62.3079 318.022 61.8973 317.686C61.4959 317.341 61.0339 317.168 60.5113 317.168C59.9886 317.168 59.5266 317.341 59.1253 317.686C58.7239 318.022 58.4066 318.493 58.1733 319.1C57.9493 319.697 57.8373 320.388 57.8373 321.172C57.8373 321.956 57.9493 322.647 58.1733 323.244C58.4066 323.841 58.7239 324.313 59.1253 324.658C59.5359 325.003 59.9979 325.176 60.5113 325.176Z" fill="#414141"/>
<line x1="72.9961" y1="320.275" x2="357.996" y2="318.031" stroke="#CACACA"/>
<path d="M81.092 345.5L77.158 335.7H78.348L82.338 345.5H81.092ZM73.126 345.5L77.116 335.7H78.32L74.386 345.5H73.126ZM75.016 342.714V341.65H80.462V342.714H75.016ZM83.8046 348.3V338.5H84.8546L84.9246 339.788V348.3H83.8046ZM87.2906 345.668C86.7026 345.668 86.1846 345.514 85.7366 345.206C85.2979 344.898 84.9573 344.469 84.7146 343.918C84.4719 343.358 84.3506 342.719 84.3506 342C84.3506 341.272 84.4719 340.633 84.7146 340.082C84.9573 339.531 85.2979 339.102 85.7366 338.794C86.1846 338.486 86.7026 338.332 87.2906 338.332C87.9159 338.332 88.4666 338.486 88.9426 338.794C89.4186 339.102 89.7873 339.531 90.0486 340.082C90.3193 340.633 90.4546 341.272 90.4546 342C90.4546 342.719 90.3193 343.358 90.0486 343.918C89.7873 344.469 89.4186 344.898 88.9426 345.206C88.4666 345.514 87.9159 345.668 87.2906 345.668ZM87.0386 344.646C87.4773 344.646 87.8646 344.534 88.2006 344.31C88.5459 344.086 88.8166 343.773 89.0126 343.372C89.2179 342.971 89.3206 342.513 89.3206 342C89.3206 341.487 89.2226 341.029 89.0266 340.628C88.8399 340.227 88.5739 339.914 88.2286 339.69C87.8833 339.466 87.4913 339.354 87.0526 339.354C86.6419 339.354 86.2733 339.466 85.9466 339.69C85.6293 339.914 85.3773 340.227 85.1906 340.628C85.0133 341.029 84.9246 341.487 84.9246 342C84.9246 342.513 85.0133 342.971 85.1906 343.372C85.3773 343.773 85.6293 344.086 85.9466 344.31C86.2639 344.534 86.6279 344.646 87.0386 344.646ZM92.9021 341.706C92.9021 340.95 93.0468 340.339 93.3361 339.872C93.6254 339.396 93.9941 339.046 94.4421 338.822C94.8994 338.589 95.3801 338.472 95.8841 338.472V339.522C95.4734 339.522 95.0768 339.592 94.6941 339.732C94.3208 339.863 94.0128 340.082 93.7701 340.39C93.5274 340.698 93.4061 341.118 93.4061 341.65L92.9021 341.706ZM92.2861 345.5V338.5H93.4061V345.5H92.2861ZM97.3666 345.5V338.5H98.4866V345.5H97.3666ZM97.9406 336.876C97.7539 336.876 97.5906 336.806 97.4506 336.666C97.3106 336.526 97.2406 336.363 97.2406 336.176C97.2406 335.98 97.3106 335.817 97.4506 335.686C97.5906 335.546 97.7539 335.476 97.9406 335.476C98.1366 335.476 98.2999 335.546 98.4306 335.686C98.5706 335.817 98.6406 335.98 98.6406 336.176C98.6406 336.363 98.5706 336.526 98.4306 336.666C98.2999 336.806 98.1366 336.876 97.9406 336.876ZM100.83 345.5V335.7H101.95V345.5H100.83Z" fill="#414141"/>
<path d="M159.302 345.5V335.7H160.534L163.922 340.712L167.31 335.7H168.528V345.5H167.352V337.604L163.922 342.714L160.492 337.632V345.5H159.302ZM175.412 345.5L175.356 344.352V341.804C175.356 341.253 175.295 340.801 175.174 340.446C175.053 340.082 174.861 339.807 174.6 339.62C174.339 339.433 173.998 339.34 173.578 339.34C173.195 339.34 172.864 339.419 172.584 339.578C172.313 339.727 172.089 339.97 171.912 340.306L170.904 339.914C171.081 339.587 171.296 339.307 171.548 339.074C171.8 338.831 172.094 338.649 172.43 338.528C172.766 338.397 173.149 338.332 173.578 338.332C174.231 338.332 174.768 338.463 175.188 338.724C175.617 338.976 175.939 339.354 176.154 339.858C176.369 340.353 176.471 340.969 176.462 341.706L176.448 345.5H175.412ZM173.312 345.668C172.491 345.668 171.847 345.481 171.38 345.108C170.923 344.725 170.694 344.198 170.694 343.526C170.694 342.817 170.927 342.275 171.394 341.902C171.87 341.519 172.533 341.328 173.382 341.328H175.384V342.266H173.634C172.981 342.266 172.514 342.373 172.234 342.588C171.963 342.803 171.828 343.111 171.828 343.512C171.828 343.876 171.963 344.165 172.234 344.38C172.505 344.585 172.883 344.688 173.368 344.688C173.769 344.688 174.119 344.604 174.418 344.436C174.717 344.259 174.945 344.011 175.104 343.694C175.272 343.367 175.356 342.985 175.356 342.546H175.832C175.832 343.498 175.617 344.259 175.188 344.828C174.759 345.388 174.133 345.668 173.312 345.668ZM179.037 348.468C178.86 348.468 178.655 348.431 178.421 348.356C178.188 348.291 177.941 348.202 177.679 348.09L178.099 347.152C178.314 347.245 178.501 347.315 178.659 347.362C178.827 347.409 178.958 347.432 179.051 347.432C179.303 347.432 179.509 347.362 179.667 347.222C179.835 347.091 179.975 346.9 180.087 346.648L180.885 344.744L183.475 338.5H184.679L181.319 346.48C181.142 346.891 180.955 347.245 180.759 347.544C180.573 347.843 180.344 348.071 180.073 348.23C179.803 348.389 179.457 348.468 179.037 348.468ZM180.577 345.5L177.553 338.5H178.743L181.347 344.73L181.683 345.5H180.577Z" fill="#414141"/>
<path d="M245.758 345.668C245.422 345.668 245.109 345.617 244.82 345.514C244.54 345.421 244.288 345.295 244.064 345.136C243.84 344.968 243.649 344.781 243.49 344.576C243.331 344.361 243.201 344.142 243.098 343.918L243.994 343.4C244.19 343.745 244.428 344.03 244.708 344.254C244.997 344.478 245.352 344.59 245.772 344.59C246.108 344.59 246.435 344.511 246.752 344.352C247.079 344.193 247.345 343.927 247.55 343.554C247.755 343.181 247.858 342.691 247.858 342.084V335.7H249.034V342.546C249.034 343.059 248.941 343.512 248.754 343.904C248.577 344.296 248.329 344.623 248.012 344.884C247.704 345.145 247.354 345.341 246.962 345.472C246.57 345.603 246.169 345.668 245.758 345.668ZM256.267 345.5L256.197 344.212V338.5H257.317V345.5H256.267ZM251.283 342.084V338.5H252.403V342.084H251.283ZM252.403 342.084C252.403 342.775 252.482 343.302 252.641 343.666C252.8 344.03 253.019 344.282 253.299 344.422C253.588 344.553 253.91 344.618 254.265 344.618C254.872 344.618 255.343 344.399 255.679 343.96C256.024 343.521 256.197 342.91 256.197 342.126H256.743C256.743 342.863 256.636 343.498 256.421 344.03C256.206 344.562 255.894 344.968 255.483 345.248C255.082 345.528 254.587 345.668 253.999 345.668C253.458 345.668 252.982 345.561 252.571 345.346C252.16 345.122 251.843 344.772 251.619 344.296C251.395 343.811 251.283 343.185 251.283 342.42V342.084H252.403ZM259.552 345.5V338.5H260.602L260.672 339.788V345.5H259.552ZM264.466 345.5V341.916H265.586V345.5H264.466ZM264.466 341.916C264.466 341.225 264.386 340.698 264.228 340.334C264.069 339.97 263.85 339.723 263.57 339.592C263.29 339.452 262.972 339.382 262.618 339.382C262.002 339.382 261.521 339.601 261.176 340.04C260.84 340.469 260.672 341.081 260.672 341.874H260.126C260.126 341.137 260.233 340.502 260.448 339.97C260.662 339.438 260.975 339.032 261.386 338.752C261.796 338.472 262.291 338.332 262.87 338.332C263.42 338.332 263.896 338.444 264.298 338.668C264.708 338.883 265.026 339.228 265.25 339.704C265.483 340.18 265.595 340.805 265.586 341.58V341.916H264.466ZM270.704 345.668C270.023 345.668 269.421 345.514 268.898 345.206C268.376 344.889 267.965 344.455 267.666 343.904C267.377 343.353 267.232 342.719 267.232 342C267.232 341.281 267.377 340.647 267.666 340.096C267.965 339.545 268.371 339.116 268.884 338.808C269.407 338.491 270.004 338.332 270.676 338.332C271.33 338.332 271.894 338.495 272.37 338.822C272.846 339.139 273.215 339.587 273.476 340.166C273.738 340.745 273.868 341.426 273.868 342.21H268.086L268.366 341.972C268.366 342.532 268.464 343.013 268.66 343.414C268.866 343.815 269.15 344.123 269.514 344.338C269.878 344.543 270.294 344.646 270.76 344.646C271.255 344.646 271.67 344.529 272.006 344.296C272.352 344.063 272.618 343.755 272.804 343.372L273.77 343.862C273.593 344.226 273.355 344.543 273.056 344.814C272.767 345.085 272.422 345.295 272.02 345.444C271.628 345.593 271.19 345.668 270.704 345.668ZM268.436 341.496L268.142 341.272H272.972L272.678 341.51C272.678 341.062 272.59 340.675 272.412 340.348C272.235 340.021 271.997 339.769 271.698 339.592C271.4 339.415 271.054 339.326 270.662 339.326C270.28 339.326 269.916 339.415 269.57 339.592C269.234 339.769 268.959 340.021 268.744 340.348C268.539 340.665 268.436 341.048 268.436 341.496Z" fill="#414141"/>
<path d="M326.758 345.668C326.422 345.668 326.109 345.617 325.82 345.514C325.54 345.421 325.288 345.295 325.064 345.136C324.84 344.968 324.649 344.781 324.49 344.576C324.331 344.361 324.201 344.142 324.098 343.918L324.994 343.4C325.19 343.745 325.428 344.03 325.708 344.254C325.997 344.478 326.352 344.59 326.772 344.59C327.108 344.59 327.435 344.511 327.752 344.352C328.079 344.193 328.345 343.927 328.55 343.554C328.755 343.181 328.858 342.691 328.858 342.084V335.7H330.034V342.546C330.034 343.059 329.941 343.512 329.754 343.904C329.577 344.296 329.329 344.623 329.012 344.884C328.704 345.145 328.354 345.341 327.962 345.472C327.57 345.603 327.169 345.668 326.758 345.668ZM337.267 345.5L337.197 344.212V338.5H338.317V345.5H337.267ZM332.283 342.084V338.5H333.403V342.084H332.283ZM333.403 342.084C333.403 342.775 333.482 343.302 333.641 343.666C333.8 344.03 334.019 344.282 334.299 344.422C334.588 344.553 334.91 344.618 335.265 344.618C335.872 344.618 336.343 344.399 336.679 343.96C337.024 343.521 337.197 342.91 337.197 342.126H337.743C337.743 342.863 337.636 343.498 337.421 344.03C337.206 344.562 336.894 344.968 336.483 345.248C336.082 345.528 335.587 345.668 334.999 345.668C334.458 345.668 333.982 345.561 333.571 345.346C333.16 345.122 332.843 344.772 332.619 344.296C332.395 343.811 332.283 343.185 332.283 342.42V342.084H333.403ZM340.552 345.5V335.7H341.672V345.5H340.552ZM344.538 348.468C344.361 348.468 344.155 348.431 343.922 348.356C343.689 348.291 343.441 348.202 343.18 348.09L343.6 347.152C343.815 347.245 344.001 347.315 344.16 347.362C344.328 347.409 344.459 347.432 344.552 347.432C344.804 347.432 345.009 347.362 345.168 347.222C345.336 347.091 345.476 346.9 345.588 346.648L346.386 344.744L348.976 338.5H350.18L346.82 346.48C346.643 346.891 346.456 347.245 346.26 347.544C346.073 347.843 345.845 348.071 345.574 348.23C345.303 348.389 344.958 348.468 344.538 348.468ZM346.078 345.5L343.054 338.5H344.244L346.848 344.73L347.184 345.5H346.078Z" fill="#414141"/>
<path d="M45.9311 266.881V257.711L46.0291 257.081H47.0931V266.881H45.9311ZM43.7331 259.601V258.523C43.9291 258.533 44.1625 258.467 44.4331 258.327C44.7038 258.187 44.9838 258.005 45.2731 257.781C45.5625 257.557 45.8145 257.324 46.0291 257.081L46.7571 257.879C46.4491 258.206 46.1271 258.5 45.7911 258.761C45.4551 259.023 45.1145 259.233 44.7691 259.391C44.4238 259.541 44.0785 259.611 43.7331 259.601ZM53.4363 267.049C52.6897 267.049 52.027 266.835 51.4483 266.405C50.8697 265.967 50.417 265.369 50.0903 264.613C49.7637 263.848 49.6003 262.971 49.6003 261.981C49.6003 260.992 49.7637 260.119 50.0903 259.363C50.417 258.598 50.865 258.001 51.4343 257.571C52.013 257.133 52.6803 256.913 53.4363 256.913C54.1923 256.913 54.855 257.133 55.4243 257.571C56.003 258.001 56.4557 258.598 56.7823 259.363C57.1183 260.119 57.2863 260.992 57.2863 261.981C57.2863 262.971 57.123 263.848 56.7963 264.613C56.4697 265.369 56.017 265.967 55.4383 266.405C54.8597 266.835 54.1923 267.049 53.4363 267.049ZM53.4363 265.985C53.959 265.985 54.421 265.813 54.8223 265.467C55.233 265.122 55.5503 264.651 55.7743 264.053C56.0077 263.456 56.1243 262.765 56.1243 261.981C56.1243 261.197 56.0077 260.507 55.7743 259.909C55.5503 259.303 55.233 258.831 54.8223 258.495C54.421 258.15 53.959 257.977 53.4363 257.977C52.9137 257.977 52.4517 258.15 52.0503 258.495C51.649 258.831 51.3317 259.303 51.0983 259.909C50.8743 260.507 50.7623 261.197 50.7623 261.981C50.7623 262.765 50.8743 263.456 51.0983 264.053C51.3317 264.651 51.649 265.122 52.0503 265.467C52.461 265.813 52.923 265.985 53.4363 265.985ZM60.2771 264.627L59.5631 263.857L63.2871 259.881H64.7011L60.2771 264.627ZM59.1851 266.881V257.081H60.3051V266.881H59.1851ZM63.5951 266.881L60.9351 262.863L61.6631 262.079L64.9811 266.881H63.5951Z" fill="#414141"/>
<line x1="73" y1="261" x2="358" y2="261" stroke="#AAAAAA" stroke-dasharray="3 3"/>
<path d="M41.654 207.691V206.711C41.654 206.403 41.7147 206.099 41.836 205.801C41.9667 205.493 42.1487 205.189 42.382 204.891C42.6247 204.592 42.9187 204.312 43.264 204.051L45.294 202.525C45.5367 202.357 45.7467 202.165 45.924 201.951C46.1107 201.727 46.2553 201.498 46.358 201.265C46.4607 201.022 46.512 200.789 46.512 200.565C46.512 200.238 46.4327 199.944 46.274 199.683C46.1153 199.412 45.8913 199.197 45.602 199.039C45.3127 198.88 44.972 198.801 44.58 198.801C44.1973 198.801 43.8613 198.875 43.572 199.025C43.2827 199.165 43.0447 199.356 42.858 199.599C42.6713 199.832 42.536 200.084 42.452 200.355L41.248 200.117C41.36 199.697 41.5607 199.305 41.85 198.941C42.1487 198.577 42.5267 198.283 42.984 198.059C43.4413 197.835 43.95 197.723 44.51 197.723C45.1633 197.723 45.728 197.849 46.204 198.101C46.68 198.343 47.0487 198.679 47.31 199.109C47.5807 199.529 47.716 200.009 47.716 200.551C47.716 201.064 47.576 201.549 47.296 202.007C47.016 202.464 46.61 202.907 46.078 203.337L44.16 204.793C43.7867 205.073 43.4973 205.367 43.292 205.675C43.096 205.983 42.984 206.305 42.956 206.641H47.856V207.691H41.654ZM53.4363 207.859C52.6897 207.859 52.027 207.644 51.4483 207.215C50.8697 206.776 50.417 206.179 50.0903 205.423C49.7637 204.657 49.6003 203.78 49.6003 202.791C49.6003 201.801 49.7637 200.929 50.0903 200.173C50.417 199.407 50.865 198.81 51.4343 198.381C52.013 197.942 52.6803 197.723 53.4363 197.723C54.1923 197.723 54.855 197.942 55.4243 198.381C56.003 198.81 56.4557 199.407 56.7823 200.173C57.1183 200.929 57.2863 201.801 57.2863 202.791C57.2863 203.78 57.123 204.657 56.7963 205.423C56.4697 206.179 56.017 206.776 55.4383 207.215C54.8597 207.644 54.1923 207.859 53.4363 207.859ZM53.4363 206.795C53.959 206.795 54.421 206.622 54.8223 206.277C55.233 205.931 55.5503 205.46 55.7743 204.863C56.0077 204.265 56.1243 203.575 56.1243 202.791C56.1243 202.007 56.0077 201.316 55.7743 200.719C55.5503 200.112 55.233 199.641 54.8223 199.305C54.421 198.959 53.959 198.787 53.4363 198.787C52.9137 198.787 52.4517 198.959 52.0503 199.305C51.649 199.641 51.3317 200.112 51.0983 200.719C50.8743 201.316 50.7623 202.007 50.7623 202.791C50.7623 203.575 50.8743 204.265 51.0983 204.863C51.3317 205.46 51.649 205.931 52.0503 206.277C52.461 206.622 52.923 206.795 53.4363 206.795ZM60.2771 205.437L59.5631 204.667L63.2871 200.691H64.7011L60.2771 205.437ZM59.1851 207.691V197.891H60.3051V207.691H59.1851ZM63.5951 207.691L60.9351 203.673L61.6631 202.889L64.9811 207.691H63.5951Z" fill="#414141"/>
<line x1="73" y1="202" x2="358" y2="202" stroke="#AAAAAA" stroke-dasharray="3 3"/>
<path d="M44.6836 148.668C44.2916 148.668 43.8903 148.612 43.4796 148.5C43.0783 148.379 42.6956 148.197 42.3316 147.954C41.9769 147.711 41.6829 147.399 41.4496 147.016L42.4016 146.47C42.7283 146.881 43.0829 147.179 43.4656 147.366C43.8483 147.553 44.2449 147.646 44.6556 147.646C45.2996 147.646 45.8223 147.45 46.2236 147.058C46.6343 146.657 46.8396 146.134 46.8396 145.49C46.8396 144.855 46.6436 144.337 46.2516 143.936C45.8596 143.535 45.3463 143.334 44.7116 143.334C44.3663 143.334 44.0256 143.413 43.6896 143.572C43.3536 143.721 43.0923 143.908 42.9056 144.132L41.8416 143.88L42.3176 138.7H47.5396V139.764H43.3676L43.0736 142.886C43.3349 142.727 43.6243 142.601 43.9416 142.508C44.2589 142.415 44.5809 142.368 44.9076 142.368C45.5049 142.368 46.0369 142.499 46.5036 142.76C46.9703 143.021 47.3389 143.385 47.6096 143.852C47.8803 144.319 48.0156 144.855 48.0156 145.462C48.0156 146.097 47.8709 146.657 47.5816 147.142C47.3016 147.618 46.9096 147.991 46.4056 148.262C45.9109 148.533 45.3369 148.668 44.6836 148.668ZM53.4363 148.668C52.6897 148.668 52.027 148.453 51.4483 148.024C50.8697 147.585 50.417 146.988 50.0903 146.232C49.7637 145.467 49.6003 144.589 49.6003 143.6C49.6003 142.611 49.7637 141.738 50.0903 140.982C50.417 140.217 50.865 139.619 51.4343 139.19C52.013 138.751 52.6803 138.532 53.4363 138.532C54.1923 138.532 54.855 138.751 55.4243 139.19C56.003 139.619 56.4557 140.217 56.7823 140.982C57.1183 141.738 57.2863 142.611 57.2863 143.6C57.2863 144.589 57.123 145.467 56.7963 146.232C56.4697 146.988 56.017 147.585 55.4383 148.024C54.8597 148.453 54.1923 148.668 53.4363 148.668ZM53.4363 147.604C53.959 147.604 54.421 147.431 54.8223 147.086C55.233 146.741 55.5503 146.269 55.7743 145.672C56.0077 145.075 56.1243 144.384 56.1243 143.6C56.1243 142.816 56.0077 142.125 55.7743 141.528C55.5503 140.921 55.233 140.45 54.8223 140.114C54.421 139.769 53.959 139.596 53.4363 139.596C52.9137 139.596 52.4517 139.769 52.0503 140.114C51.649 140.45 51.3317 140.921 51.0983 141.528C50.8743 142.125 50.7623 142.816 50.7623 143.6C50.7623 144.384 50.8743 145.075 51.0983 145.672C51.3317 146.269 51.649 146.741 52.0503 147.086C52.461 147.431 52.923 147.604 53.4363 147.604ZM60.2771 146.246L59.5631 145.476L63.2871 141.5H64.7011L60.2771 146.246ZM59.1851 148.5V138.7H60.3051V148.5H59.1851ZM63.5951 148.5L60.9351 144.482L61.6631 143.698L64.9811 148.5H63.5951Z" fill="#414141"/>
<line x1="73" y1="143" x2="358" y2="143" stroke="#AAAAAA" stroke-dasharray="3 3"/>
<path fill-rule="evenodd" clip-rule="evenodd" d="M166 182.017C162.686 182.017 160 184.703 160 188.017V204.157C160 207.471 162.686 210.157 166 210.157H226.103C229.416 210.157 232.103 207.471 232.103 204.157V198.59L236 195.602L232.103 192.614V188.017C232.103 184.703 229.416 182.017 226.103 182.017H166Z" fill="#C4F01F"/>
<path d="M174.344 201.7V200.608C176.096 200.476 176.888 199.492 176.888 198.316C176.888 197.104 176.228 196.348 174.716 196.036L173.348 195.748C172.244 195.508 171.92 195.304 171.92 194.572C171.92 193.864 172.4 193.528 173.588 193.528C175.028 193.528 175.46 194.044 175.46 195.028V195.16H176.732V195.016C176.732 193.756 176.036 192.628 174.344 192.388V191.26H173.144V192.364C171.404 192.52 170.624 193.54 170.624 194.632C170.624 195.904 171.368 196.576 172.748 196.84L174.116 197.116C175.352 197.368 175.592 197.632 175.592 198.364C175.592 199.108 175.16 199.432 173.972 199.432C172.292 199.432 171.872 198.928 171.872 197.932V197.8H170.6V198.004C170.6 199.36 171.38 200.356 173.144 200.572V201.7H174.344ZM184.118 200.5V199.336H179.546C179.546 198.676 180.17 198.292 180.986 197.872L182.162 197.272C183.194 196.744 184.094 196.036 184.094 194.716C184.094 193.384 183.266 192.34 181.286 192.34C179.066 192.34 178.13 193.588 178.13 195.088V195.28H179.426V195.112C179.426 194.008 179.726 193.528 181.19 193.528C182.522 193.528 182.798 194.02 182.798 194.764C182.798 195.448 182.45 195.808 181.586 196.264L180.35 196.9C179.222 197.476 178.19 198.172 178.19 199.696V200.5H184.118ZM189.033 200.62C191.193 200.62 192.513 199.024 192.513 196.48C192.513 193.936 191.193 192.34 189.033 192.34C186.873 192.34 185.565 193.936 185.565 196.48C185.565 199.024 186.873 200.62 189.033 200.62ZM189.033 199.372C187.605 199.372 186.945 198.604 186.945 196.48C186.945 194.356 187.605 193.588 189.033 193.588C190.461 193.588 191.133 194.356 191.133 196.48C191.133 198.604 190.461 199.372 189.033 199.372ZM194.224 201.916C194.98 201.916 195.412 201.532 195.412 200.728V198.64H193.768V200.5H194.5V200.752C194.5 201.016 194.392 201.064 194.188 201.064H193.792V201.916H194.224ZM200.154 200.62C202.314 200.62 203.634 199.024 203.634 196.48C203.634 193.936 202.314 192.34 200.154 192.34C197.994 192.34 196.686 193.936 196.686 196.48C196.686 199.024 197.994 200.62 200.154 200.62ZM200.154 199.372C198.726 199.372 198.066 198.604 198.066 196.48C198.066 194.356 198.726 193.588 200.154 193.588C201.582 193.588 202.254 194.356 202.254 196.48C202.254 198.604 201.582 199.372 200.154 199.372ZM208.82 200.62C210.98 200.62 212.3 199.024 212.3 196.48C212.3 193.936 210.98 192.34 208.82 192.34C206.66 192.34 205.352 193.936 205.352 196.48C205.352 199.024 206.66 200.62 208.82 200.62ZM208.82 199.372C207.392 199.372 206.732 198.604 206.732 196.48C206.732 194.356 207.392 193.588 208.82 193.588C210.248 193.588 210.92 194.356 210.92 196.48C210.92 198.604 210.248 199.372 208.82 199.372ZM217.486 200.62C219.646 200.62 220.966 199.024 220.966 196.48C220.966 193.936 219.646 192.34 217.486 192.34C215.326 192.34 214.018 193.936 214.018 196.48C214.018 199.024 215.326 200.62 217.486 200.62ZM217.486 199.372C216.058 199.372 215.398 198.604 215.398 196.48C215.398 194.356 216.058 193.588 217.486 193.588C218.914 193.588 219.586 194.356 219.586 196.48C219.586 198.604 218.914 199.372 217.486 199.372Z" fill="#131313"/>
<path d="M116 273.5C116 266.873 121.373 261.5 128 261.5C134.627 261.5 140 266.873 140 273.5V319.5H116V273.5Z" fill="#D9D9D9"/>
<path d="M148 242.5C148 235.873 153.373 230.5 160 230.5C166.627 230.5 172 235.873 172 242.5V319.5H148V242.5Z" fill="#D9D9D9"/>
<path d="M180 273.5C180 266.873 185.373 261.5 192 261.5C198.627 261.5 204 266.873 204 273.5V319.5H180V273.5Z" fill="#D9D9D9"/>
<path d="M212 224.5C212 217.873 217.373 212.5 224 212.5C230.627 212.5 236 217.873 236 224.5V319.5H212V224.5Z" fill="#D9D9D9"/>
<path d="M244 156.5C244 149.873 249.373 144.5 256 144.5C262.627 144.5 268 149.873 268 156.5V319.5H244V156.5Z" fill="#004952"/>
<path d="M276 257.5C276 250.873 281.373 245.5 288 245.5C294.627 245.5 300 250.873 300 257.5V319.5H276V257.5Z" fill="#D9D9D9"/>
<g filter="url(#filter0_d_13_30)">
<circle cx="256" cy="197.5" r="9" fill="#C4F01F"/>
<circle cx="256" cy="197.5" r="6.5" stroke="#014952" stroke-opacity="0.81" stroke-width="5"/>
</g>
<defs>
<filter id="filter0_d_13_30" x="234" y="178.5" width="44" height="44" filterUnits="userSpaceOnUse" color-interpolation-filters="sRGB">
<feFlood flood-opacity="0" result="BackgroundImageFix"/>
<feColorMatrix in="SourceAlpha" type="matrix" values="0 0 0 0 0 0 0 0 0 0 0 0 0 0 0 0 0 0 127 0" result="hardAlpha"/>
<feOffset dy="3"/>
<feGaussianBlur stdDeviation="6.5"/>
<feComposite in2="hardAlpha" operator="out"/>
<feColorMatrix type="matrix" values="0 0 0 0 0.290196 0 0 0 0 0.333333 0 0 0 0 0.407843 0 0 0 0.15 0"/>
<feBlend mode="normal" in2="BackgroundImageFix" result="effect1_dropShadow_13_30"/>
<feBlend mode="normal" in="SourceGraphic" in2="effect1_dropShadow_13_30" result="shape"/>
</filter>
</defs>
</svg>
