<svg width="255" height="189" viewBox="0 0 255 189" fill="none" xmlns="http://www.w3.org/2000/svg">
<g filter="url(#filter0_d_13_10)">
<rect x="35" y="31" width="185" height="119" rx="16" fill="#FFFEFE"/>
<path d="M75.696 69V59.24H72.192V57.8H80.784V59.24H77.28V69H75.696ZM84.6251 69.192C83.8251 69.192 83.1211 69.016 82.5131 68.664C81.9051 68.3013 81.4251 67.8053 81.0731 67.176C80.7318 66.5467 80.5611 65.8213 80.5611 65C80.5611 64.1787 80.7318 63.4533 81.0731 62.824C81.4145 62.1947 81.8891 61.704 82.4971 61.352C83.1051 60.9893 83.8038 60.808 84.5931 60.808C85.3825 60.808 86.0811 60.9893 86.6891 61.352C87.2971 61.704 87.7718 62.1947 88.1131 62.824C88.4545 63.4533 88.6251 64.1787 88.6251 65C88.6251 65.8213 88.4545 66.5467 88.1131 67.176C87.7718 67.8053 87.2971 68.3013 86.6891 68.664C86.0918 69.016 85.4038 69.192 84.6251 69.192ZM84.6251 67.8C85.1051 67.8 85.5318 67.6827 85.9051 67.448C86.2785 67.2027 86.5665 66.872 86.7691 66.456C86.9825 66.04 87.0891 65.5547 87.0891 65C87.0891 64.4453 86.9825 63.96 86.7691 63.544C86.5665 63.128 86.2731 62.8027 85.8891 62.568C85.5051 62.3227 85.0731 62.2 84.5931 62.2C84.1025 62.2 83.6705 62.3227 83.2971 62.568C82.9238 62.8027 82.6305 63.128 82.4171 63.544C82.2038 63.96 82.0971 64.4453 82.0971 65C82.0971 65.5547 82.2038 66.04 82.4171 66.456C82.6305 66.872 82.9291 67.2027 83.3131 67.448C83.6971 67.6827 84.1345 67.8 84.6251 67.8ZM93.3784 69.192C92.5784 69.192 91.9597 68.9893 91.5224 68.584C91.085 68.168 90.8664 67.576 90.8664 66.808V58.504H92.3864V66.584C92.3864 66.9787 92.4824 67.2827 92.6744 67.496C92.877 67.6987 93.165 67.8 93.5384 67.8C93.645 67.8 93.7624 67.7787 93.8904 67.736C94.0184 67.6933 94.173 67.608 94.3544 67.48L94.9304 68.664C94.653 68.8453 94.3864 68.9787 94.1304 69.064C93.885 69.1493 93.6344 69.192 93.3784 69.192ZM89.5064 62.312V61H94.6584V62.312H89.5064ZM101.281 69L101.217 67.608V64.824C101.217 64.2373 101.147 63.7467 101.009 63.352C100.881 62.9573 100.678 62.6587 100.401 62.456C100.134 62.2533 99.7765 62.152 99.3285 62.152C98.9125 62.152 98.5498 62.2373 98.2405 62.408C97.9418 62.5787 97.6912 62.8453 97.4885 63.208L96.1445 62.696C96.3365 62.3333 96.5765 62.0133 96.8645 61.736C97.1525 61.448 97.4992 61.224 97.9045 61.064C98.3098 60.8933 98.7845 60.808 99.3285 60.808C100.086 60.808 100.715 60.9573 101.217 61.256C101.718 61.5547 102.091 61.9867 102.337 62.552C102.593 63.1173 102.715 63.816 102.705 64.648L102.689 69H101.281ZM98.9285 69.192C97.9792 69.192 97.2378 68.9787 96.7045 68.552C96.1818 68.1147 95.9205 67.512 95.9205 66.744C95.9205 65.9227 96.1925 65.2987 96.7365 64.872C97.2912 64.4347 98.0592 64.216 99.0405 64.216H101.265V65.416H99.4565C98.7205 65.416 98.2032 65.5333 97.9045 65.768C97.6058 65.992 97.4565 66.3067 97.4565 66.712C97.4565 67.0853 97.5952 67.3787 97.8725 67.592C98.1605 67.7947 98.5552 67.896 99.0565 67.896C99.4938 67.896 99.8725 67.8053 100.193 67.624C100.513 67.432 100.763 67.1653 100.945 66.824C101.126 66.4827 101.217 66.0933 101.217 65.656H101.745C101.745 66.744 101.51 67.608 101.041 68.248C100.582 68.8773 99.8778 69.192 98.9285 69.192ZM104.618 69V57.8H106.139V69H104.618ZM112.15 69V57.8H113.67V67.512L113.59 69H112.15ZM116.294 69.192C115.622 69.192 115.035 69.016 114.534 68.664C114.043 68.312 113.664 67.8213 113.398 67.192C113.131 66.5627 112.998 65.832 112.998 65C112.998 64.1573 113.131 63.4267 113.398 62.808C113.664 62.1787 114.043 61.688 114.534 61.336C115.035 60.984 115.622 60.808 116.294 60.808C117.008 60.808 117.638 60.984 118.182 61.336C118.726 61.688 119.147 62.1787 119.446 62.808C119.755 63.4267 119.91 64.1573 119.91 65C119.91 65.832 119.755 66.5627 119.446 67.192C119.147 67.8213 118.726 68.312 118.182 68.664C117.638 69.016 117.008 69.192 116.294 69.192ZM115.926 67.816C116.406 67.816 116.827 67.6987 117.19 67.464C117.552 67.2187 117.835 66.888 118.038 66.472C118.251 66.0453 118.358 65.5547 118.358 65C118.358 64.4453 118.256 63.96 118.054 63.544C117.851 63.1173 117.568 62.7867 117.206 62.552C116.843 62.3067 116.422 62.184 115.942 62.184C115.504 62.184 115.11 62.3067 114.758 62.552C114.416 62.7867 114.15 63.1173 113.958 63.544C113.766 63.9707 113.67 64.456 113.67 65C113.67 65.5547 113.766 66.0453 113.958 66.472C114.15 66.888 114.416 67.2187 114.758 67.464C115.099 67.6987 115.488 67.816 115.926 67.816ZM126.484 69L126.42 67.608V64.824C126.42 64.2373 126.35 63.7467 126.212 63.352C126.084 62.9573 125.881 62.6587 125.604 62.456C125.337 62.2533 124.98 62.152 124.532 62.152C124.116 62.152 123.753 62.2373 123.444 62.408C123.145 62.5787 122.894 62.8453 122.692 63.208L121.348 62.696C121.54 62.3333 121.78 62.0133 122.068 61.736C122.356 61.448 122.702 61.224 123.108 61.064C123.513 60.8933 123.988 60.808 124.532 60.808C125.289 60.808 125.918 60.9573 126.42 61.256C126.921 61.5547 127.294 61.9867 127.54 62.552C127.796 63.1173 127.918 63.816 127.908 64.648L127.892 69H126.484ZM124.132 69.192C123.182 69.192 122.441 68.9787 121.908 68.552C121.385 68.1147 121.124 67.512 121.124 66.744C121.124 65.9227 121.396 65.2987 121.94 64.872C122.494 64.4347 123.262 64.216 124.244 64.216H126.468V65.416H124.66C123.924 65.416 123.406 65.5333 123.108 65.768C122.809 65.992 122.66 66.3067 122.66 66.712C122.66 67.0853 122.798 67.3787 123.076 67.592C123.364 67.7947 123.758 67.896 124.26 67.896C124.697 67.896 125.076 67.8053 125.396 67.624C125.716 67.432 125.966 67.1653 126.148 66.824C126.329 66.4827 126.42 66.0933 126.42 65.656H126.948C126.948 66.744 126.713 67.608 126.244 68.248C125.785 68.8773 125.081 69.192 124.132 69.192ZM129.822 69V57.8H131.342V69H129.822ZM138.359 69L138.295 67.608V64.824C138.295 64.2373 138.225 63.7467 138.087 63.352C137.959 62.9573 137.756 62.6587 137.479 62.456C137.212 62.2533 136.855 62.152 136.407 62.152C135.991 62.152 135.628 62.2373 135.319 62.408C135.02 62.5787 134.769 62.8453 134.567 63.208L133.223 62.696C133.415 62.3333 133.655 62.0133 133.943 61.736C134.231 61.448 134.577 61.224 134.983 61.064C135.388 60.8933 135.863 60.808 136.407 60.808C137.164 60.808 137.793 60.9573 138.295 61.256C138.796 61.5547 139.169 61.9867 139.415 62.552C139.671 63.1173 139.793 63.816 139.783 64.648L139.767 69H138.359ZM136.007 69.192C135.057 69.192 134.316 68.9787 133.783 68.552C133.26 68.1147 132.999 67.512 132.999 66.744C132.999 65.9227 133.271 65.2987 133.815 64.872C134.369 64.4347 135.137 64.216 136.119 64.216H138.343V65.416H136.535C135.799 65.416 135.281 65.5333 134.983 65.768C134.684 65.992 134.535 66.3067 134.535 66.712C134.535 67.0853 134.673 67.3787 134.951 67.592C135.239 67.7947 135.633 67.896 136.135 67.896C136.572 67.896 136.951 67.8053 137.271 67.624C137.591 67.432 137.841 67.1653 138.023 66.824C138.204 66.4827 138.295 66.0933 138.295 65.656H138.823C138.823 66.744 138.588 67.608 138.119 68.248C137.66 68.8773 136.956 69.192 136.007 69.192ZM141.697 69V61H143.121L143.217 62.472V69H141.697ZM147.233 69V64.904H148.753V69H147.233ZM147.233 64.904C147.233 64.1787 147.147 63.6293 146.977 63.256C146.817 62.872 146.587 62.6053 146.289 62.456C146.001 62.3067 145.665 62.2267 145.281 62.216C144.63 62.216 144.123 62.4453 143.761 62.904C143.398 63.3627 143.217 64.008 143.217 64.84H142.561C142.561 63.9973 142.683 63.2773 142.929 62.68C143.185 62.072 143.542 61.608 144.001 61.288C144.47 60.968 145.025 60.808 145.665 60.808C146.294 60.808 146.838 60.936 147.297 61.192C147.766 61.448 148.123 61.848 148.369 62.392C148.625 62.9253 148.753 63.6293 148.753 64.504V64.904H147.233ZM154.313 69.192C153.513 69.192 152.804 69.016 152.185 68.664C151.567 68.3013 151.081 67.8053 150.729 67.176C150.388 66.5467 150.217 65.8213 150.217 65C150.217 64.1787 150.388 63.4533 150.729 62.824C151.081 62.1947 151.561 61.704 152.169 61.352C152.788 60.9893 153.492 60.808 154.281 60.808C155.06 60.808 155.759 60.9893 156.377 61.352C157.007 61.7147 157.476 62.232 157.785 62.904L156.409 63.48C156.207 63.0853 155.913 62.776 155.529 62.552C155.156 62.328 154.724 62.216 154.233 62.216C153.753 62.216 153.327 62.3333 152.953 62.568C152.58 62.8027 152.287 63.1333 152.073 63.56C151.86 63.976 151.753 64.456 151.753 65C151.753 65.544 151.86 66.024 152.073 66.44C152.287 66.856 152.585 67.1867 152.969 67.432C153.353 67.6667 153.785 67.784 154.265 67.784C154.756 67.784 155.193 67.6613 155.577 67.416C155.961 67.16 156.249 66.8187 156.441 66.392L157.833 66.952C157.524 67.656 157.055 68.2053 156.425 68.6C155.807 68.9947 155.103 69.192 154.313 69.192ZM162.873 69.192C162.095 69.192 161.407 69.016 160.809 68.664C160.212 68.3013 159.743 67.8053 159.401 67.176C159.06 66.5467 158.889 65.8213 158.889 65C158.889 64.1787 159.06 63.4533 159.401 62.824C159.743 62.1947 160.212 61.704 160.809 61.352C161.417 60.9893 162.111 60.808 162.889 60.808C163.625 60.808 164.271 60.9947 164.825 61.368C165.38 61.7307 165.812 62.2533 166.121 62.936C166.441 63.608 166.601 64.4027 166.601 65.32H160.137L160.425 65.08C160.425 65.6453 160.537 66.136 160.761 66.552C160.985 66.968 161.289 67.288 161.673 67.512C162.057 67.7253 162.495 67.832 162.985 67.832C163.519 67.832 163.961 67.7093 164.313 67.464C164.676 67.208 164.959 66.888 165.161 66.504L166.473 67.112C166.26 67.528 165.983 67.896 165.641 68.216C165.3 68.5253 164.895 68.7653 164.425 68.936C163.967 69.1067 163.449 69.192 162.873 69.192ZM160.521 64.36L160.217 64.12H165.273L164.985 64.36C164.985 63.8907 164.889 63.4907 164.697 63.16C164.505 62.8187 164.249 62.5627 163.929 62.392C163.609 62.2107 163.252 62.12 162.857 62.12C162.473 62.12 162.1 62.2107 161.737 62.392C161.385 62.5627 161.092 62.8133 160.857 63.144C160.633 63.4747 160.521 63.88 160.521 64.36Z" fill="#8B8B8B"/>
<path d="M78.936 95.448C77.864 95.448 76.92 95.288 76.104 94.968C75.304 94.648 74.656 94.224 74.16 93.696C73.664 93.168 73.328 92.608 73.152 92.016L75.24 91.344C75.464 91.904 75.872 92.4 76.464 92.832C77.056 93.248 77.792 93.456 78.672 93.456C79.696 93.472 80.504 93.272 81.096 92.856C81.704 92.424 82.008 91.872 82.008 91.2C82.008 90.576 81.744 90.064 81.216 89.664C80.688 89.248 80 88.936 79.152 88.728L77.424 88.296C76.72 88.104 76.08 87.832 75.504 87.48C74.944 87.112 74.504 86.656 74.184 86.112C73.864 85.568 73.704 84.92 73.704 84.168C73.704 82.792 74.152 81.712 75.048 80.928C75.96 80.144 77.264 79.752 78.96 79.752C79.936 79.752 80.784 79.912 81.504 80.232C82.224 80.536 82.816 80.944 83.28 81.456C83.744 81.968 84.072 82.52 84.264 83.112L82.152 83.832C81.928 83.224 81.52 82.728 80.928 82.344C80.336 81.944 79.624 81.744 78.792 81.744C77.912 81.744 77.216 81.952 76.704 82.368C76.208 82.784 75.96 83.344 75.96 84.048C75.96 84.688 76.16 85.176 76.56 85.512C76.96 85.848 77.48 86.096 78.12 86.256L79.896 86.688C81.304 87.024 82.392 87.6 83.16 88.416C83.928 89.232 84.312 90.12 84.312 91.08C84.312 91.912 84.104 92.656 83.688 93.312C83.272 93.968 82.664 94.488 81.864 94.872C81.08 95.256 80.104 95.448 78.936 95.448ZM77.976 98.472V77.28H79.968V98.472H77.976ZM91.9571 78.912C93.1251 78.912 94.0931 79.128 94.8611 79.56C95.6451 79.992 96.2771 80.584 96.7571 81.336C97.2371 82.072 97.5811 82.928 97.7891 83.904C97.9971 84.88 98.1011 85.92 98.1011 87.024C98.1011 88.416 97.9491 89.688 97.6451 90.84C97.3571 91.976 96.9331 92.952 96.3731 93.768C95.8291 94.568 95.1491 95.192 94.3331 95.64C93.5171 96.072 92.5731 96.288 91.5011 96.288C90.6531 96.288 89.8131 96.16 88.9811 95.904C88.1651 95.648 87.4291 95.28 86.7731 94.8L88.0451 93.096C88.5411 93.448 89.0851 93.72 89.6771 93.912C90.2691 94.104 90.8291 94.2 91.3571 94.2C92.8771 94.2 94.0451 93.552 94.8611 92.256C95.6771 90.96 96.0371 88.976 95.9411 86.304L96.4451 86.712C96.0611 87.656 95.4531 88.416 94.6211 88.992C93.8051 89.552 92.8291 89.832 91.6931 89.832C90.6211 89.832 89.6691 89.592 88.8371 89.112C88.0051 88.632 87.3491 87.984 86.8691 87.168C86.4051 86.336 86.1731 85.392 86.1731 84.336C86.1731 83.264 86.4131 82.328 86.8931 81.528C87.3731 80.712 88.0451 80.072 88.9091 79.608C89.7891 79.144 90.8051 78.912 91.9571 78.912ZM91.9571 80.976C91.3011 80.976 90.7091 81.12 90.1811 81.408C89.6691 81.696 89.2611 82.096 88.9571 82.608C88.6691 83.12 88.5251 83.712 88.5251 84.384C88.5251 85.056 88.6691 85.656 88.9571 86.184C89.2611 86.696 89.6691 87.104 90.1811 87.408C90.7091 87.696 91.3011 87.84 91.9571 87.84C92.6291 87.84 93.2211 87.696 93.7331 87.408C94.2611 87.104 94.6691 86.696 94.9571 86.184C95.2611 85.656 95.4131 85.056 95.4131 84.384C95.4131 83.712 95.2611 83.12 94.9571 82.608C94.6691 82.096 94.2611 81.696 93.7331 81.408C93.2211 81.12 92.6291 80.976 91.9571 80.976ZM100.005 98.76L101.397 93.528H103.869L101.853 98.76H100.005ZM111.918 96.288C110.766 96.288 109.798 96.072 109.014 95.64C108.23 95.208 107.598 94.624 107.118 93.888C106.654 93.136 106.318 92.272 106.11 91.296C105.902 90.32 105.798 89.28 105.798 88.176C105.798 86.784 105.942 85.52 106.23 84.384C106.518 83.248 106.942 82.272 107.502 81.456C108.062 80.64 108.75 80.016 109.566 79.584C110.382 79.136 111.318 78.912 112.374 78.912C113.222 78.912 114.062 79.048 114.894 79.32C115.726 79.576 116.47 79.936 117.126 80.4L115.854 82.104C115.342 81.752 114.79 81.488 114.198 81.312C113.606 81.12 113.054 81.024 112.542 81.024C111.022 81.024 109.854 81.672 109.038 82.968C108.222 84.248 107.854 86.224 107.934 88.896L107.454 88.488C107.838 87.544 108.438 86.792 109.254 86.232C110.086 85.656 111.062 85.368 112.182 85.368C113.27 85.368 114.23 85.608 115.062 86.088C115.894 86.568 116.542 87.224 117.006 88.056C117.47 88.872 117.702 89.816 117.702 90.888C117.702 91.928 117.462 92.856 116.982 93.672C116.502 94.488 115.822 95.128 114.942 95.592C114.078 96.056 113.07 96.288 111.918 96.288ZM111.942 94.224C112.598 94.224 113.182 94.08 113.694 93.792C114.206 93.504 114.606 93.104 114.894 92.592C115.198 92.064 115.35 91.472 115.35 90.816C115.35 90.144 115.198 89.552 114.894 89.04C114.606 88.512 114.206 88.104 113.694 87.816C113.182 87.528 112.598 87.384 111.942 87.384C111.27 87.384 110.67 87.528 110.142 87.816C109.63 88.104 109.222 88.512 108.918 89.04C108.63 89.552 108.486 90.144 108.486 90.816C108.486 91.472 108.63 92.064 108.918 92.592C109.222 93.104 109.63 93.504 110.142 93.792C110.67 94.08 111.27 94.224 111.942 94.224ZM127.118 96V92.136H119.366V90.288L126.95 79.2H129.398V90.048H132.686V92.136H129.398V96H127.118ZM121.958 90.048H127.118V82.488L121.958 90.048ZM135.446 96L143.366 80.856L145.694 81.096L138.062 96H135.446ZM134.342 81.36V79.2H145.694V81.096L143.654 81.36H134.342ZM149.03 96.336C148.63 96.336 148.278 96.192 147.974 95.904C147.686 95.616 147.542 95.264 147.542 94.848C147.542 94.432 147.686 94.08 147.974 93.792C148.278 93.504 148.63 93.36 149.03 93.36C149.446 93.36 149.798 93.504 150.086 93.792C150.39 94.08 150.542 94.432 150.542 94.848C150.542 95.264 150.39 95.616 150.086 95.904C149.798 96.192 149.446 96.336 149.03 96.336ZM159.368 96.288C158.072 96.288 156.92 95.92 155.912 95.184C154.904 94.432 154.112 93.408 153.536 92.112C152.976 90.8 152.696 89.296 152.696 87.6C152.696 85.904 152.976 84.408 153.536 83.112C154.112 81.8 154.896 80.776 155.888 80.04C156.896 79.288 158.056 78.912 159.368 78.912C160.68 78.912 161.832 79.288 162.824 80.04C163.832 80.776 164.624 81.8 165.2 83.112C165.776 84.408 166.064 85.904 166.064 87.6C166.064 89.296 165.776 90.8 165.2 92.112C164.64 93.408 163.856 94.432 162.848 95.184C161.84 95.92 160.68 96.288 159.368 96.288ZM159.368 94.128C160.216 94.128 160.968 93.848 161.624 93.288C162.296 92.728 162.816 91.96 163.184 90.984C163.552 90.008 163.736 88.88 163.736 87.6C163.736 86.32 163.552 85.192 163.184 84.216C162.816 83.224 162.296 82.448 161.624 81.888C160.968 81.328 160.216 81.048 159.368 81.048C158.52 81.048 157.768 81.328 157.112 81.888C156.456 82.448 155.944 83.224 155.576 84.216C155.208 85.192 155.024 86.32 155.024 87.6C155.024 88.88 155.208 90.016 155.576 91.008C155.944 91.984 156.456 92.752 157.112 93.312C157.768 93.856 158.52 94.128 159.368 94.128ZM174.79 96.288C173.494 96.288 172.342 95.92 171.334 95.184C170.326 94.432 169.534 93.408 168.958 92.112C168.398 90.8 168.118 89.296 168.118 87.6C168.118 85.904 168.398 84.408 168.958 83.112C169.534 81.8 170.318 80.776 171.31 80.04C172.318 79.288 173.478 78.912 174.79 78.912C176.102 78.912 177.254 79.288 178.246 80.04C179.254 80.776 180.046 81.8 180.622 83.112C181.198 84.408 181.486 85.904 181.486 87.6C181.486 89.296 181.198 90.8 180.622 92.112C180.062 93.408 179.278 94.432 178.27 95.184C177.262 95.92 176.102 96.288 174.79 96.288ZM174.79 94.128C175.638 94.128 176.39 93.848 177.046 93.288C177.718 92.728 178.238 91.96 178.606 90.984C178.974 90.008 179.158 88.88 179.158 87.6C179.158 86.32 178.974 85.192 178.606 84.216C178.238 83.224 177.718 82.448 177.046 81.888C176.39 81.328 175.638 81.048 174.79 81.048C173.942 81.048 173.19 81.328 172.534 81.888C171.878 82.448 171.366 83.224 170.998 84.216C170.63 85.192 170.446 86.32 170.446 87.6C170.446 88.88 170.63 90.016 170.998 91.008C171.366 91.984 171.878 92.752 172.534 93.312C173.19 93.856 173.942 94.128 174.79 94.128Z" fill="#212121"/>
<circle cx="80.5" cy="118.5" r="8.5" fill="#0CCA08"/>
<path d="M77.5 118H84.5" stroke="#FCFDFF" stroke-width="1.5" stroke-linecap="round" stroke-linejoin="round"/>
<path d="M81 121.5V114.5" stroke="#FCFDFF" stroke-width="1.5" stroke-linecap="round" stroke-linejoin="round"/>
<path d="M103.936 124L100.564 115.6H101.584L105.004 124H103.936ZM97.108 124L100.528 115.6H101.56L98.188 124H97.108ZM98.728 121.612V120.7H103.396V121.612H98.728ZM110.319 124L110.271 122.884V115.6H111.231V124H110.319ZM108.243 124.144C107.707 124.144 107.235 124.012 106.827 123.748C106.419 123.484 106.099 123.116 105.867 122.644C105.643 122.164 105.531 121.616 105.531 121C105.531 120.376 105.643 119.828 105.867 119.356C106.099 118.884 106.419 118.516 106.827 118.252C107.235 117.988 107.707 117.856 108.243 117.856C108.747 117.856 109.187 117.988 109.563 118.252C109.947 118.516 110.243 118.884 110.451 119.356C110.659 119.828 110.763 120.376 110.763 121C110.763 121.616 110.659 122.164 110.451 122.644C110.243 123.116 109.947 123.484 109.563 123.748C109.187 124.012 108.747 124.144 108.243 124.144ZM108.459 123.268C108.811 123.268 109.123 123.172 109.395 122.98C109.667 122.788 109.879 122.52 110.031 122.176C110.191 121.832 110.271 121.44 110.271 121C110.271 120.56 110.191 120.168 110.031 119.824C109.879 119.48 109.667 119.212 109.395 119.02C109.123 118.828 108.807 118.732 108.447 118.732C108.071 118.732 107.735 118.828 107.439 119.02C107.151 119.212 106.923 119.48 106.755 119.824C106.587 120.168 106.503 120.56 106.503 121C106.503 121.44 106.587 121.832 106.755 122.176C106.923 122.52 107.155 122.788 107.451 122.98C107.747 123.172 108.083 123.268 108.459 123.268ZM117.35 124L117.302 122.884V115.6H118.262V124H117.35ZM115.274 124.144C114.738 124.144 114.266 124.012 113.858 123.748C113.45 123.484 113.13 123.116 112.898 122.644C112.674 122.164 112.562 121.616 112.562 121C112.562 120.376 112.674 119.828 112.898 119.356C113.13 118.884 113.45 118.516 113.858 118.252C114.266 117.988 114.738 117.856 115.274 117.856C115.778 117.856 116.218 117.988 116.594 118.252C116.978 118.516 117.274 118.884 117.482 119.356C117.69 119.828 117.794 120.376 117.794 121C117.794 121.616 117.69 122.164 117.482 122.644C117.274 123.116 116.978 123.484 116.594 123.748C116.218 124.012 115.778 124.144 115.274 124.144ZM115.49 123.268C115.842 123.268 116.154 123.172 116.426 122.98C116.698 122.788 116.91 122.52 117.062 122.176C117.222 121.832 117.302 121.44 117.302 121C117.302 120.56 117.222 120.168 117.062 119.824C116.91 119.48 116.698 119.212 116.426 119.02C116.154 118.828 115.838 118.732 115.478 118.732C115.102 118.732 114.766 118.828 114.47 119.02C114.182 119.212 113.954 119.48 113.786 119.824C113.618 120.168 113.534 120.56 113.534 121C113.534 121.44 113.618 121.832 113.786 122.176C113.954 122.52 114.186 122.788 114.482 122.98C114.778 123.172 115.114 123.268 115.49 123.268ZM123.182 124V115.6H124.214L129.218 122.344V115.6H130.238V124H129.218L124.202 117.22V124H123.182ZM136.315 124L136.255 122.896V118H137.215V124H136.315ZM132.043 121.072V118H133.003V121.072H132.043ZM133.003 121.072C133.003 121.664 133.071 122.116 133.207 122.428C133.343 122.74 133.531 122.956 133.771 123.076C134.019 123.188 134.295 123.244 134.599 123.244C135.119 123.244 135.523 123.056 135.811 122.68C136.107 122.304 136.255 121.78 136.255 121.108H136.723C136.723 121.74 136.631 122.284 136.447 122.74C136.263 123.196 135.995 123.544 135.643 123.784C135.299 124.024 134.875 124.144 134.371 124.144C133.907 124.144 133.499 124.052 133.147 123.868C132.795 123.676 132.523 123.376 132.331 122.968C132.139 122.552 132.043 122.016 132.043 121.36V121.072H133.003ZM138.891 124V118H139.791L139.839 118.84C140.023 118.52 140.259 118.276 140.547 118.108C140.835 117.94 141.171 117.856 141.555 117.856C142.035 117.856 142.443 117.968 142.779 118.192C143.123 118.416 143.371 118.756 143.523 119.212C143.691 118.772 143.935 118.436 144.255 118.204C144.583 117.972 144.971 117.856 145.419 117.856C146.091 117.856 146.619 118.08 147.003 118.528C147.395 118.976 147.587 119.656 147.579 120.568V124H146.619V120.928C146.619 120.336 146.555 119.884 146.427 119.572C146.307 119.26 146.143 119.048 145.935 118.936C145.727 118.816 145.487 118.756 145.215 118.756C144.743 118.756 144.375 118.944 144.111 119.32C143.847 119.688 143.715 120.212 143.715 120.892V124H142.755V120.928C142.755 120.336 142.691 119.884 142.563 119.572C142.443 119.26 142.275 119.048 142.059 118.936C141.851 118.816 141.611 118.756 141.339 118.756C140.875 118.756 140.511 118.944 140.247 119.32C139.983 119.688 139.851 120.212 139.851 120.892V124H138.891ZM149.098 124V115.6H150.058V122.884L150.01 124H149.098ZM152.086 124.144C151.582 124.144 151.138 124.012 150.754 123.748C150.378 123.484 150.086 123.116 149.878 122.644C149.67 122.164 149.566 121.616 149.566 121C149.566 120.376 149.67 119.828 149.878 119.356C150.086 118.884 150.378 118.516 150.754 118.252C151.138 117.988 151.582 117.856 152.086 117.856C152.622 117.856 153.094 117.988 153.502 118.252C153.91 118.516 154.226 118.884 154.45 119.356C154.682 119.828 154.798 120.376 154.798 121C154.798 121.616 154.682 122.164 154.45 122.644C154.226 123.116 153.91 123.484 153.502 123.748C153.094 124.012 152.622 124.144 152.086 124.144ZM151.87 123.268C152.246 123.268 152.578 123.172 152.866 122.98C153.162 122.788 153.394 122.52 153.562 122.176C153.738 121.832 153.826 121.44 153.826 121C153.826 120.56 153.742 120.168 153.574 119.824C153.414 119.48 153.186 119.212 152.89 119.02C152.594 118.828 152.258 118.732 151.882 118.732C151.53 118.732 151.214 118.828 150.934 119.02C150.662 119.212 150.446 119.48 150.286 119.824C150.134 120.168 150.058 120.56 150.058 121C150.058 121.44 150.134 121.832 150.286 122.176C150.446 122.52 150.662 122.788 150.934 122.98C151.206 123.172 151.518 123.268 151.87 123.268ZM158.757 124.144C158.173 124.144 157.657 124.012 157.209 123.748C156.761 123.476 156.409 123.104 156.153 122.632C155.905 122.16 155.781 121.616 155.781 121C155.781 120.384 155.905 119.84 156.153 119.368C156.409 118.896 156.757 118.528 157.197 118.264C157.645 117.992 158.157 117.856 158.733 117.856C159.293 117.856 159.777 117.996 160.185 118.276C160.593 118.548 160.909 118.932 161.133 119.428C161.357 119.924 161.469 120.508 161.469 121.18H156.513L156.753 120.976C156.753 121.456 156.837 121.868 157.005 122.212C157.181 122.556 157.425 122.82 157.737 123.004C158.049 123.18 158.405 123.268 158.805 123.268C159.229 123.268 159.585 123.168 159.873 122.968C160.169 122.768 160.397 122.504 160.557 122.176L161.385 122.596C161.233 122.908 161.029 123.18 160.773 123.412C160.525 123.644 160.229 123.824 159.885 123.952C159.549 124.08 159.173 124.144 158.757 124.144ZM156.813 120.568L156.561 120.376H160.701L160.449 120.58C160.449 120.196 160.373 119.864 160.221 119.584C160.069 119.304 159.865 119.088 159.609 118.936C159.353 118.784 159.057 118.708 158.721 118.708C158.393 118.708 158.081 118.784 157.785 118.936C157.497 119.088 157.261 119.304 157.077 119.584C156.901 119.856 156.813 120.184 156.813 120.568ZM163.208 120.748C163.208 120.1 163.332 119.576 163.58 119.176C163.828 118.768 164.144 118.468 164.528 118.276C164.92 118.076 165.332 117.976 165.764 117.976V118.876C165.412 118.876 165.072 118.936 164.744 119.056C164.424 119.168 164.16 119.356 163.952 119.62C163.744 119.884 163.64 120.244 163.64 120.7L163.208 120.748ZM162.68 124V118H163.64V124H162.68Z" fill="#212121"/>
</g>
<defs>
<filter id="filter0_d_13_10" x="0" y="0" width="255" height="189" filterUnits="userSpaceOnUse" color-interpolation-filters="sRGB">
<feFlood flood-opacity="0" result="BackgroundImageFix"/>
<feColorMatrix in="SourceAlpha" type="matrix" values="0 0 0 0 0 0 0 0 0 0 0 0 0 0 0 0 0 0 127 0" result="hardAlpha"/>
<feOffset dy="4"/>
<feGaussianBlur stdDeviation="17.5"/>
<feComposite in2="hardAlpha" operator="out"/>
<feColorMatrix type="matrix" values="0 0 0 0 0 0 0 0 0 0 0 0 0 0 0 0 0 0 0.19 0"/>
<feBlend mode="normal" in2="BackgroundImageFix" result="effect1_dropShadow_13_10"/>
<feBlend mode="normal" in="SourceGraphic" in2="effect1_dropShadow_13_10" result="shape"/>
</filter>
</defs>
</svg>
